<?xml version="1.0" encoding="UTF-8" standalone="no"?>
<svg
   xmlns:dc="http://purl.org/dc/elements/1.1/"
   xmlns:cc="http://creativecommons.org/ns#"
   xmlns:rdf="http://www.w3.org/1999/02/22-rdf-syntax-ns#"
   xmlns:svg="http://www.w3.org/2000/svg"
   xmlns="http://www.w3.org/2000/svg"
   xmlns:sodipodi="http://sodipodi.sourceforge.net/DTD/sodipodi-0.dtd"
   xmlns:inkscape="http://www.inkscape.org/namespaces/inkscape"
   version="1.1"
   id="svg2"
   width="482.66666"
   height="460"
   viewBox="0 0 482.66666 460"
   sodipodi:docname="bierinformatik-sw.svg"
   inkscape:version="1.0.2 (e86c870879, 2021-01-15)">
  <metadata
     id="metadata8">
    <rdf:RDF>
      <cc:Work
         rdf:about="">
        <dc:format>image/svg+xml</dc:format>
        <dc:type
           rdf:resource="http://purl.org/dc/dcmitype/StillImage" />
        <dc:title></dc:title>
      </cc:Work>
    </rdf:RDF>
  </metadata>
  <defs
     id="defs6" />
  <sodipodi:namedview
     pagecolor="#ffffff"
     bordercolor="#666666"
     borderopacity="1"
     objecttolerance="10"
     gridtolerance="10"
     guidetolerance="10"
     inkscape:pageopacity="0"
     inkscape:pageshadow="2"
     inkscape:window-width="1920"
     inkscape:window-height="1020"
     id="namedview4"
     showgrid="false"
     inkscape:zoom="1.2973872"
     inkscape:cx="445.50655"
     inkscape:cy="221.64702"
     inkscape:window-x="1600"
     inkscape:window-y="32"
     inkscape:window-maximized="1"
     inkscape:current-layer="g10" />
  <g
     inkscape:groupmode="layer"
     inkscape:label="Image"
     id="g10">
    <path
       style="fill:#000000;stroke-width:1.33333"
       d="m 228.01099,456.14225 c -3.66666,-0.94248 -8.5432,-1.77121 -10.83674,-1.8416 -2.29354,-0.0704 -4.917,-1.028 -5.82992,-2.128 -1.42262,-1.71415 -0.98076,-2 3.09138,-2 6.0342,0 6.71582,-1.20688 4.14992,-7.34792 -1.74429,-4.17469 -1.81581,-5.97317 -0.44956,-11.30403 2.40644,-9.38945 1.44196,-10.68138 -7.97418,-10.68138 -10.16956,0 -12.13155,0.82454 -12.23678,5.14265 -0.0472,1.9382 -2.02809,7.11083 -4.40192,11.49471 -3.3879,6.25664 -5.36317,8.36921 -9.18538,9.82396 -4.23107,1.61036 -5.13076,1.59188 -6.86364,-0.141 -1.77016,-1.77016 -1.6888,-3.02407 0.72401,-11.15731 1.49507,-5.03965 3.26456,-11.00561 3.93223,-13.25768 1.84561,-6.22541 1.52888,-8.82847 -1.01438,-8.33643 -2.98198,0.57691 -7.78798,10.37722 -10.50965,21.4311 -2.28512,9.28085 -2.93364,10.12841 -5.66205,7.4 -2.14848,-2.14848 -2.01656,-5.90239 0.35825,-10.19428 1.07704,-1.94648 3.52405,-7.43906 5.4378,-12.20572 5.54008,-13.79892 7.84015,-18.5254 9.30795,-19.12718 2.86837,-1.176 17.49617,2.05571 21.96266,4.85219 4.10947,2.57295 7.0816,3.0026 24.89228,3.5984 11.1241,0.37212 20.7241,1.17545 21.33334,1.78519 0.60925,0.60972 1.21818,5.95656 1.35321,11.88185 0.21629,9.49172 0.63596,11.16373 3.52801,14.05579 1.80539,1.80538 3.94492,2.87313 4.75451,2.37278 2.15789,-1.33365 1.79447,-6.82486 -0.58223,-8.79734 -1.5698,-1.30283 -1.96281,-3.9101 -1.66666,-11.05662 0.36981,-8.92369 0.5589,-9.40868 4.13136,-10.59524 2.86216,-0.95064 4.29988,-0.74026 6.10498,0.89335 3.25332,2.9442 7.79116,2.70504 8.79686,-0.46364 1.26326,-3.98021 8.52326,-7.7232 16.99684,-8.76297 13.72888,-1.68463 15.59486,-0.12987 19.81874,16.51368 1.42138,5.6007 3.8822,13.04497 5.46848,16.54281 2.2719,5.00963 2.53832,6.70557 1.25504,7.98885 -2.0527,2.05271 -3.61988,-0.12066 -5.53936,-7.6819 -4.48228,-17.65683 -6.2335,-22 -8.8707,-22 -2.64046,0 -1.83759,15.1945 1.60454,30.36628 0.57951,2.5543 -0.21149,3.41682 -5.01224,5.46538 -7.27478,3.10428 -15.27557,4.60098 -16.24138,3.03826 -0.41195,-0.66655 1.04126,-1.56996 3.22936,-2.00759 4.71217,-0.94243 4.80965,-1.89627 1.43748,-14.06517 -3.54094,-12.7779 -4.57478,-14.30474 -10.31675,-15.23654 -5.91416,-0.95973 -15.48837,2.76984 -17.69501,6.89298 -2.03802,3.80806 -1.86428,4.21306 1.80728,4.21306 4.7109,0 5.33193,2.11894 2.1845,7.45343 -1.52486,2.58445 -2.79156,6.01471 -2.81488,7.62279 -0.0703,4.84112 -3.19126,7.53642 -9.77122,8.43832 -7.39264,1.01326 -6.86246,2.77914 -6.10083,-20.31998 0.30724,-9.31833 -0.40428,-12.52789 -2.77733,-12.52789 -2.31139,0 -6.64155,17.47771 -6.64155,26.80712 0,5.05608 -0.45,9.1216 -1,9.03449 -0.55,-0.0871 -4,-0.92952 -7.66667,-1.87201 z m 3.2029,-22.16856 c 1.77861,-5.10211 1.93162,-14.46771 0.23638,-14.46771 -0.67506,0 -1.63873,1.87283 -2.14149,4.16183 -0.54113,2.46377 -1.94437,4.43125 -3.43927,4.82217 -1.85034,0.48388 -2.52518,1.86595 -2.52518,5.17151 0,3.87403 0.45236,4.51116 3.20289,4.51116 2.39375,0 3.57269,-1.06079 4.66667,-4.19896 z m -39.0365,-2.15479 c 0.9561,-0.62449 1.37188,-4.84621 1.147,-11.64625 -0.42416,-12.82592 -0.21704,-12.01647 -2.57417,-10.06023 -2.53912,2.1073 -5.33489,14.83874 -4.22745,19.25112 0.87014,3.46695 2.81378,4.31091 5.65462,2.45536 z m 103.8336,-6.88673 c 0,-3.96367 -0.64632,-7.4194 -1.43692,-7.68293 -3.00644,-1.00215 -6.23881,12.13657 -3.62809,14.74728 0.51424,0.51424 1.86424,0.75602 3,0.53729 1.5606,-0.30053 2.06501,-2.15739 2.06501,-7.60164 z m -148.66666,8.00952 c -4.03334,-2.07316 -11.83334,-4.76693 -17.33334,-5.98619 -13.22117,-2.93089 -18.66666,-4.73218 -18.66666,-6.1747 0,-0.65179 1.91967,-3.27674 4.26593,-5.83322 4.98749,-5.43438 8.8873,-14.29897 8.9929,-20.4416 0.0908,-5.28221 -2.05662,-5.55389 -6.54242,-0.82772 -1.80597,1.90275 -3.49014,2.83987 -3.7426,2.0825 -0.34982,-1.04948 5.31802,-13.99702 6.97382,-15.9309 0.16142,-0.18852 2.7056,-0.68016 5.65374,-1.09252 4.70211,-0.65769 6.65183,0.0276 15.87944,5.5814 16.95553,10.20498 24.51919,15.52078 24.51919,17.2323 0,3.22238 -11.2965,35.43858 -12.35123,35.22414 -0.17349,-0.0353 -3.61544,-1.76034 -7.64877,-3.83349 z m -9.93334,-9.21093 c 0.69667,-0.60971 3.76194,-1.8174 6.81171,-2.68375 4.14287,-1.17688 6.27571,-2.81357 8.43451,-6.47245 3.83774,-6.50451 2.33673,-9.61063 -6.85242,-14.18006 -3.91992,-1.94924 -8.16061,-4.28308 -9.42376,-5.18632 -2.81983,-2.01638 -4.85503,-0.34454 -5.77823,4.74659 -0.56437,3.11233 -0.20868,3.55121 2.87808,3.55121 3.41349,0 3.45444,0.0924 1.32864,3 -4.12284,5.63898 -7.45522,10.99923 -7.46021,12 -0.008,1.65843 5.20426,6.33334 7.06168,6.33334 0.95334,0 2.30334,-0.49886 3,-1.10856 z m 187.14491,8.84286 c -3.81695,-3.11992 -9.22489,-14.12965 -9.16011,-18.64854 0.0348,-2.4305 -0.33452,-6.72392 -0.82082,-9.54094 -1.65024,-9.55953 5.49022,-16.08028 14.26058,-13.0229 5.97563,2.0831 6.2617,1.98376 8.29398,-2.88015 1.86262,-4.45791 8.02641,-9.82549 14.52272,-12.64676 3.18208,-1.38193 3.8185,-1.25015 5.0469,1.04515 0.77312,1.44458 2.57703,2.6265 4.0087,2.6265 3.91744,0 17.81511,22.22038 19.35127,30.9399 0.72539,4.11741 0.66575,4.1828 -1.78888,1.9614 -1.3966,-1.26391 -3.85472,-4.85566 -5.46248,-7.98167 -4.18091,-8.12903 -10.83238,-15.00704 -12.28825,-12.70677 -1.57017,2.48085 -0.056,10.23018 3.06527,15.68752 1.43663,2.51186 2.82775,6.27134 3.09137,8.3544 0.41211,3.25624 -0.24792,4.15838 -4.70646,6.43297 -6.41768,3.27405 -6.62536,3.27205 -6.62536,-0.0639 0,-1.49021 -0.90818,-4.88305 -2.01816,-7.53964 -1.8144,-4.34246 -1.80608,-5.15384 0.0824,-8.03602 1.1553,-1.76323 1.91348,-4.45912 1.68482,-5.99086 -0.52096,-3.48989 -4.72206,-6.39825 -6.12036,-4.23702 -0.98005,1.5148 -2.11693,1.94294 -11.77649,4.4351 -5.25291,1.35526 -5.51796,1.67775 -6.36624,7.74603 -0.48683,3.48255 -1.62032,10.71235 -2.51889,16.06621 -1.45148,8.64835 -1.87046,9.54083 -3.75551,8 z M 106.42212,417.91337 c -5.52078,-2.66788 -4.98422,-8.10756 1.48863,-15.09189 3.8913,-4.19878 4.16225,-3.52427 1.57275,3.91522 -1.16831,3.35647 -1.43334,6.58131 -0.73967,9 0.59456,2.07311 0.9729,3.72867 0.84076,3.67904 -0.13215,-0.0496 -1.55526,-0.7257 -3.16247,-1.50237 z m 116.25554,-17.62409 c -0.73333,-0.29864 -6.13333,-1.55472 -12,-2.79132 -13.47269,-2.8398 -40.7786,-10.84648 -45.64125,-13.38298 -2.03064,-1.05925 -4.35679,-1.9296 -5.16922,-1.93412 -1.25174,-0.007 -8.8326,-3.76804 -22.94177,-11.38205 -7.85922,-4.24124 -36.20154,-30.24269 -47.256083,-43.35308 -14.73818,-17.47909 -26.62919,-39.11085 -31.4831,-57.27308 -6.78251,-25.37867 -7.26321,-28.62353 -7.84632,-52.96493 -0.5342,-22.30012 -0.29924,-25.64432 2.85724,-40.66667 6.79471,-32.33755 19.40036,-57.96027 43.12345,-87.654314 C 124.19818,53.99254 175.20566,25.521345 222.01099,18.729261 c 23.64998,-3.43193 58.77814,-1.495753 74.68478,4.11644 3.10777,1.096486 6.52057,1.99361 7.58398,1.99361 5.91458,0 45.14647,22.874808 58.89316,34.338625 12.77012,10.649424 32.77755,32.545184 39.50475,43.233274 0.73333,1.16511 3.5419,5.33807 6.24128,9.27325 20.33785,29.6488 30.83742,73.16375 27.77938,115.13038 -1.48453,20.37293 -7.7641,45.92909 -14.4871,58.95865 -0.68086,1.31953 -2.35444,4.78203 -3.71907,7.69443 -3.94241,8.41388 -17.95797,28.71801 -25.19013,36.49258 -14.33982,15.41528 -17.88078,18.89988 -25.44343,25.03842 -4.31617,3.5034 -8.64002,7.15028 -9.60856,8.10416 -0.96852,0.95389 -4.56852,3.35596 -8,5.33794 -3.43146,1.98198 -6.53904,3.9324 -6.9057,4.33428 -0.92311,1.01175 -19.2367,9.82656 -27.33334,13.15626 -10.17894,4.18604 -24.51685,8.42949 -32.66666,9.66806 -4.03334,0.61296 -10.33334,1.72202 -14,2.46455 -6.90722,1.39879 -44.31575,3.18245 -46.66667,2.22511 z m 53.33333,-11.12091 c 24.46418,-4.43456 47.43615,-14.59909 72.53706,-32.09588 6.36516,-4.43688 23.80209,-19.76747 28.24879,-24.83639 2.50112,-2.85109 6.0479,-6.73172 7.88172,-8.62362 1.83384,-1.89191 4.68182,-5.23983 6.32883,-7.43983 6.20963,-8.29451 11.73511,-16.17508 13.57761,-19.36476 8.11868,-14.05469 10.75932,-19.13129 10.75932,-20.68464 0,-0.98627 0.53354,-2.12296 1.18563,-2.52597 0.65209,-0.40303 1.55688,-2.21198 2.01064,-4.0199 0.45376,-1.80792 1.46241,-4.96358 2.24144,-7.0126 0.77904,-2.049 1.42887,-4.02546 1.44408,-4.39213 0.0152,-0.36667 0.83281,-2.59372 1.81692,-4.949 1.71183,-4.097 4.1272,-18.83148 2.52189,-15.38433 -1.86782,4.01085 -4.33982,0.70385 -9.96672,-13.33334 l -6.01285,-15 4.37949,-7.27434 c 5.0726,-8.42564 5.92932,-18.49948 2.19344,-25.79187 -4.14573,-8.09239 -7.36133,-8.26096 -11.45353,-0.60045 l -3.02709,5.66666 -0.36704,-21.80873 -0.36704,-21.80873 -4.96324,0.93112 c -2.72978,0.5121 -5.40543,1.62602 -5.94588,2.47538 -1.68727,2.65168 -1.23652,104.58858 0.46713,105.6415 0.81983,0.50668 3.49892,1.37418 5.95353,1.92778 l 4.46295,1.00656 0.37979,-12.80942 0.3798,-12.80943 5.1966,13.29365 c 5.5939,14.31004 7.11434,17.00422 8.95448,15.86695 2.72652,-1.68508 0.70916,3.05668 -7.01856,16.49695 -6.9407,12.07146 -12.92295,21.59445 -17.33584,27.59642 -1.23202,1.67567 -14.73142,17.11943 -20.39568,23.33334 -5.34292,5.86137 -22.52293,21.1269 -27.76017,24.66666 -30.78808,20.80915 -53.90208,30.66831 -83.1815,35.48062 -10.31241,1.69493 -45.45714,1.0415 -48.60452,-0.90368 -1.00813,-0.62306 -4.53789,-1.34871 -7.84389,-1.61254 -12.43687,-0.99252 -56.72715,-17.44413 -64.11591,-23.81582 -1.15774,-0.99839 -2.71475,-1.81524 -3.46001,-1.81524 -0.74527,0 -2.44102,-1.2 -3.76833,-2.66667 -1.32732,-1.46667 -2.88338,-2.66667 -3.45792,-2.66667 -2.22136,0 -23.26766,-16.85824 -32.666933,-26.16644 -5.43133,-5.37872 -9.87515,-9.58117 -9.87515,-9.33881 0,2.02645 3.18344,8.83859 4.13044,8.83859 0.66159,0 1.2029,0.81004 1.2029,1.8001 0,2.99882 22.292733,23.1854 36.577703,33.12195 19.80082,13.77335 47.6202,26.65305 64.75562,29.98031 1.83334,0.35598 4.23334,0.98189 5.33334,1.3909 11.03146,4.1018 58.33902,5.358 76.66666,2.03579 z m 126,-188.91703 c 0,-12.34781 1.51769,-15.1219 5.54927,-10.14313 3.4152,4.21759 3.05605,10.55461 -0.93067,16.4216 -1.85977,2.73689 -3.65977,4.97617 -4,4.97617 -0.34023,0 -0.6186,-5.06458 -0.6186,-11.25464 z m -235.3714,92.25464 c 2.04708,-2.90621 1.98082,-3.02084 -2.11965,-3.66666 -2.32804,-0.36667 -4.89492,-1.73451 -5.7042,-3.03966 -1.23315,-1.98873 -0.60779,-3.1069 3.86192,-6.9053 4.49432,-3.81931 5.10216,-4.91427 3.86383,-6.96034 -2.1393,-3.53472 -6.58599,-3.68992 -11.8852,-0.41482 -4.15856,2.57012 -4.6453,3.48166 -4.6453,8.69946 0,3.20568 0.66846,7.2956 1.48544,9.08871 2.84807,6.2508 11.67932,8.11619 15.14316,3.19861 z m -9.96193,-14.9213 c 0,-1.14328 0.6,-2.0787 1.33333,-2.0787 0.73334,0 1.33334,0.56459 1.33334,1.25464 0,0.69006 -0.6,1.62547 -1.33334,2.0787 -0.73333,0.45322 -1.33333,-0.11134 -1.33333,-1.25464 z m 29,15.26925 c 3.51804,-2.14499 4.33333,-3.49307 4.33333,-7.16509 0,-2.48766 -0.9074,-5.27608 -2.01644,-6.1965 -2.65337,-2.2021 -0.23122,-5.30914 3.3988,-4.35986 2.24527,0.58714 2.61764,1.85733 2.61764,8.92901 0,8.74904 1.41315,11.44449 6,11.44449 5.46871,0 8.20051,-5.7802 3.33334,-7.053 -2.17846,-0.56968 -2.66667,-1.81868 -2.66667,-6.82217 0,-5.23593 0.38701,-6.12483 2.66667,-6.12483 1.5511,0 2.66666,-0.88889 2.66666,-2.12482 0,-1.16866 -1.2,-2.43863 -2.66666,-2.82218 -1.4759,-0.38596 -2.66667,-1.81869 -2.66667,-3.2085 0,-3.76908 -2.0282,-3.0502 -6.41732,2.27456 -2.41993,2.9358 -4.29405,4.22064 -4.84829,3.32385 -0.49692,-0.80403 -2.66231,-2.3714 -4.81199,-3.48304 -3.59881,-1.86101 -4.33163,-1.80529 -9.24879,0.70325 -4.46605,2.27842 -5.34028,3.38914 -5.34028,6.78498 0,2.23329 0.64164,5.25945 1.42586,6.72478 1.0208,1.90738 1.00654,3.1695 -0.0501,4.44278 -1.13274,1.36486 -0.64729,2.43041 2.08728,4.58142 4.42383,3.47979 6.69779,3.5079 12.20371,0.15087 z m -6.32219,-5.31284 c -1.50334,-0.95045 -1.61308,-1.63317 -0.4495,-2.79675 1.82524,-1.82524 4.43836,-0.54548 4.43836,2.17367 0,2.21827 -1.17532,2.40185 -3.98886,0.62308 z m -2.67781,-10.70177 c 0,-1.46667 0.52653,-2.66667 1.17008,-2.66667 1.74845,0 4.27217,3.44664 3.2628,4.45601 -1.82539,1.82539 -4.43288,0.77287 -4.43288,-1.78934 z m 38.66667,16.66666 c 1.32425,-1.59562 1.32425,-2.40437 0,-4 -0.91292,-1.1 -2.41292,-2 -3.33334,-2 -2.4967,0 -5.07466,3.68026 -4.19101,5.98303 0.99444,2.59147 5.37949,2.60137 7.52435,0.0169 z m 40,1.44239 c 0,-0.30669 0.36418,-1.50669 0.80932,-2.66667 0.65005,-1.69402 -0.1828,-2.10905 -4.23243,-2.10905 h -5.04173 l 2.81026,-3 c 9.17538,-9.79484 5.87116,-22.33333 -5.88541,-22.33333 -6.40025,0 -11.12668,3.3891 -11.12668,7.97842 0,2.5656 0.14241,2.57719 4.73849,0.38547 5.91558,-2.82095 9.08322,-1.23 9.68636,4.86493 0.53712,5.42783 -2.5204,10.17142 -7.33493,11.37979 -3.51607,0.88248 -5.69005,2.79947 -5.73617,5.05805 -0.0107,0.55 4.77958,1 10.64625,1 5.86667,0 10.66667,-0.25093 10.66667,-0.55761 z m 26.13054,-2.5498 c 2.92603,-2.51687 3.73127,-4.53845 4.23703,-10.63733 0.59636,-7.19123 0.41323,-7.74112 -4.07156,-12.22591 -3.81617,-3.81617 -5.70107,-4.69601 -10.06037,-4.69601 -10.71728,0 -17.12018,10.00625 -13.70243,21.4137 1.99259,6.65066 5.84253,9.25296 13.68911,9.25296 4.67101,0 7.22789,-0.80189 9.90822,-3.10741 z m -15.35672,-3.22592 c -1.57021,-1.28333 -3.19088,-4.43352 -3.60148,-7.00041 -1.61056,-10.06858 9.38572,-16.12924 15.39755,-8.48644 3.74036,4.7551 3.53928,10.49889 -0.50929,14.54745 -3.86166,3.86167 -7.35547,4.15245 -11.28678,0.9394 z m 46.66207,2.43589 c 3.30389,-3.30389 3.89744,-4.94862 3.89744,-10.8 0,-6.07218 -0.54535,-7.4479 -4.53333,-11.43589 -11.0284,-11.0284 -27.19188,-1.03452 -24.19171,14.95773 1.42256,7.58294 5.95545,11.1756 14.10033,11.1756 5.77099,0 7.43407,-0.60422 10.72727,-3.89744 z m -13.78735,-1.02514 c -2.65413,-0.6922 -6.31521,-6.9714 -6.31521,-10.83139 0,-4.33269 5.11192,-9.57936 9.33333,-9.57936 8.5034,0 12.64182,13.204 5.82019,18.56989 -3.52668,2.7741 -4.49031,2.9748 -8.83831,1.84086 z m 42.7681,1.92258 c 0.36049,-1.88784 -0.52774,-2.34108 -4.65222,-2.37388 -4.11024,-0.0327 -4.64574,-0.30381 -2.7644,-1.3996 3.39791,-1.97909 6.33331,-8.38772 6.33331,-13.82697 0,-6.62881 -3.78308,-10.06621 -11.07849,-10.06621 -6.68652,0 -9.59974,1.89048 -10.78699,7 -0.97261,4.18574 0.0107,4.55008 4.25607,1.57662 4.17688,-2.92558 8.64084,-1.95225 10.09516,2.20119 1.73013,4.94111 -1.42727,10.70499 -7.48575,13.66533 -2.75,1.34372 -5,3.31896 -5,4.38942 0,1.57204 1.98417,1.8714 10.31888,1.55685 8.58323,-0.32391 10.39381,-0.78188 10.76443,-2.72275 z M 88.282327,249.44848 c 1.61591,-1.0575 4.59965,-4.75811 6.63056,-8.22359 l 3.69255,-6.30085 0.979838,-41.99846 c 1.047725,-44.90782 1.159475,-44.02441 -5.574278,-44.06602 -1.83333,-0.0107 -8.13333,-1.51152 -14,-3.33375 -5.86667,-1.82223 -10.84093,-3.32215 -11.05392,-3.33315 -0.21299,-0.0107 -0.21299,4.91766 0,10.95258 l 0.38725,10.9726 6.66667,1.04158 c 13.45158,2.10166 12.66733,1.43854 12.66096,10.7053 -0.005,6.99422 -0.63641,9.25669 -3.99429,14.30793 -5.00259,7.52536 -4.9882,8.72797 0.12573,10.51071 l 4.12574,1.43824 -0.45907,13.22206 c -0.56711,16.3339 -2.15715,18.82899 -11.99905,18.82899 -3.55301,0 -6.46002,0.35152 -6.46002,0.78116 0,0.42963 1.03995,4.68393 2.31099,9.45401 l 2.31099,8.67286 5.35568,-0.85474 c 2.94562,-0.4701 6.67777,-1.71996 8.29367,-2.77746 z m 28.062003,-4.11622 c 2.98401,-0.79968 3,-0.94573 3,-27.40785 v -26.60389 l 2.96662,0.42606 c 5.3127,0.76302 6.32596,5.46067 6.34706,29.42607 0.0153,17.35299 0.40375,22.33333 1.74204,22.33333 2.03175,0 12.22592,-10.35192 13.33004,-13.5363 1.01373,-2.9237 -0.36598,-4.13996 -2.59642,-2.28887 -1.48435,1.23191 -1.78934,-2.18709 -1.78934,-20.05848 0,-23.84879 -0.72275,-26.43535 -8.25893,-29.55693 -3.84278,-1.59174 -4.34207,-1.46247 -7.20438,1.86516 -1.6915,1.96648 -3.40423,3.57542 -3.80607,3.57542 -0.40184,0 -0.73062,-2.15 -0.73062,-4.77777 0,-2.62779 -0.54023,-4.57779 -1.2005,-4.33333 -2.24413,0.83081 -14.7995,13.21109 -14.7995,14.5931 0,0.75634 0.9,2.27515 2,3.37515 1.63565,1.63564 2,6.55732 2,27.01587 0,13.75873 0.4,25.41588 0.88889,25.90476 1.09346,1.09346 4.1438,1.1117 8.11111,0.0485 z m 267.48533,-5.56461 c 3.96366,-5.71959 4.43754,-8.26167 1.54006,-8.26167 -2.86633,0 -3.28646,-3.38748 -3.67529,-29.63305 -0.33059,-22.31533 -0.51332,-23.79609 -3.2774,-26.55693 -3.52276,-3.51863 -4.98692,-2.61967 -9.6036,5.89649 l -3.19756,5.89837 2.86423,2.86423 c 2.69996,2.69996 2.86422,4.13325 2.86422,24.99173 0,20.23315 0.23607,22.45904 2.75746,26 3.64345,5.11675 5.51042,4.8866 9.72788,-1.19917 z m -21.30701,-3.68573 c 3.91425,-6.19559 3.68286,-7.92291 -1.17832,-8.7961 -3.94944,-0.7094 -5.83887,-7.95476 -5.92475,-22.71942 l -0.0752,-12.93958 4.66666,-0.87548 c 4.38322,-0.82229 4.66667,-1.19041 4.66667,-6.06041 0,-4.87216 -0.24131,-5.18495 -4,-5.18495 -3.90475,0 -4,-0.15689 -4,-6.58797 0,-7.89612 -1.72488,-9.57133 -4.05727,-3.94045 -0.93504,2.25738 -4.06514,7.76358 -6.95581,12.23598 -4.66551,7.21847 -5.01604,8.30692 -3.12132,9.69238 1.7464,1.277 2.14019,4.44256 2.16621,17.41372 0.0175,8.71916 0.58564,18.25301 1.26255,21.18634 1.21684,5.27308 7.67603,12.66919 11.06001,12.66428 0.9051,-0.001 3.37587,-2.74106 5.49062,-6.08834 z m -203.34646,0.0363 c 0.45915,-0.45933 0.8348,-10.53498 0.8348,-22.39036 v -21.55521 l 3.66667,-0.42189 c 3.20616,-0.36891 3.66667,-0.99688 3.66667,-5 0,-2.66528 -0.69636,-4.66296 -1.66667,-4.78119 -0.91667,-0.11173 -2.56667,-0.26171 -3.66667,-0.33333 -1.5114,-0.0984 -2.09845,-2.22322 -2.40302,-8.69736 l -0.40303,-8.56712 2.52868,3.1228 c 2.946,3.63814 5.57303,3.06456 8.16752,-1.78332 1.67159,-3.12339 1.54296,-3.89735 -1.35495,-8.15236 -1.76102,-2.58574 -3.81217,-4.70544 -4.5581,-4.71046 -0.74592,-0.005 -4.49592,2.73743 -8.33334,6.0943 -6.94148,6.07224 -6.97709,6.14369 -6.97709,14 0,6.1303 -0.44736,7.8966 -2,7.8966 -1.44444,0 -2,1.48148 -2,5.33333 0,3.85185 0.55556,5.33333 2,5.33333 1.70215,0 2,3.50087 2,23.50779 v 23.50779 l 4.83187,-0.7841 c 2.65753,-0.43126 5.20753,-1.15992 5.66666,-1.61924 z m 38.92195,-4.67726 c 8.17191,-6.09706 8.84192,-7.3642 10.02365,-18.95679 1.4112,-13.84376 -3.31722,-24.75277 -12.87008,-29.69275 -5.77933,-2.98861 -7.52824,-2.48341 -16.71833,4.82936 l -8.52239,6.78152 0.008,12.21852 c 0.012,18.84638 3.16891,25.95015 12.8183,28.83931 6.43302,1.92612 7.7621,1.57611 15.26141,-4.01913 z m -9.74627,-7.60803 c -5.3171,-3.29676 -7.97973,-9.95341 -7.92288,-19.80743 0.0268,-4.64788 0.42915,-9.06617 0.89407,-9.81844 1.654,-2.67622 6.35452,-1.30116 10.82127,3.16559 4.35158,4.35159 4.53333,4.93523 4.53333,14.55761 0,14.81123 -1.09955,16.38315 -8.32579,11.90267 z m 148.79908,8.74935 c 4.23003,-5.106 4.3174,-5.89264 0.86004,-7.74296 -2.46057,-1.3169 -2.66666,-2.7918 -2.66666,-19.08362 0,-14.16809 -0.43367,-18.30772 -2.19507,-20.95308 -3.45079,-5.18254 -5.93317,-6.62997 -11.37064,-6.62997 -4.74519,0 -5.2692,0.42064 -8.52312,6.84196 -3.25024,6.41403 -3.41005,7.60273 -2.55516,19.00544 0.84631,11.28804 0.71037,12.34589 -1.88871,14.69803 -1.54034,1.394 -2.80064,3.57173 -2.80064,4.83941 0,2.37348 9.62643,11.94849 12.01266,11.94849 0.73608,0 2.63568,-1.4921 4.22136,-3.31578 l 2.88304,-3.31579 2.42188,3.98245 c 3.09033,5.08166 5.214,5.02091 9.60102,-0.27458 z m -16.96014,-10.5064 c -4.41752,-3.47483 -4.34947,-4.798 0.54104,-10.51954 l 3.94581,-4.61625 v 8.94963 c 0,4.9223 -0.21908,8.94964 -0.48685,8.94964 -0.26778,0 -2.06778,-1.24355 -4,-2.76344 z m -5.90924,-20.02122 c 0.38534,-9.61381 0.49317,-9.89322 3.97308,-10.29525 2.54424,-0.29393 4.01238,0.40029 5.085,2.40449 1.24028,2.31748 0.91477,3.83 -1.83348,8.51954 -1.83782,3.13598 -4.30431,6.50088 -5.48108,7.47752 -1.93634,1.60701 -2.10199,0.83686 -1.74352,-8.1063 z m -11.50955,25.29864 c 0.54727,-0.8855 0.007,-2.29645 -1.22399,-3.19658 -1.84156,-1.34658 -2.2037,-4.29298 -2.2037,-17.92944 v -16.31807 l -4.14102,-3.86828 c -5.16076,-4.82088 -9.93266,-4.98177 -13.49345,-0.45495 l -2.68493,3.41334 -2.55891,-2.74667 c -3.40245,-3.65211 -10.06303,-3.57977 -14.03576,0.15241 l -3.08593,2.8991 v -3.56576 c 0,-4.46654 -1.02559,-4.4545 -8.59254,0.10093 -4.9203,2.96209 -5.91946,4.17908 -5.1997,6.33333 0.49004,1.46667 1.13802,11.21667 1.43997,21.66667 l 0.549,19 h 5.82889 5.82891 l -0.2606,-18.96423 c -0.23781,-17.30616 -0.0511,-19.00612 2.13679,-19.44344 5.43129,-1.08565 6.26928,1.75307 6.26928,21.23758 v 18.50341 h 6 6 v -20 c 0,-18.16651 0.2139,-19.99813 2.33333,-19.97959 5.80821,0.0508 6.31401,1.67858 6.76231,21.76186 l 0.42896,19.21802 6.46169,-3.11721 c 3.55393,-1.71448 6.90256,-3.83056 7.4414,-4.70243 z m -70.60752,0.55879 c 5.19956,-5.6766 5.96497,-9.0466 1.75095,-7.70911 -1.76442,0.56 -3.691,0.0361 -5.33334,-1.45013 -2.14798,-1.94385 -2.57112,-4.15795 -2.57112,-13.45348 0,-6.11967 0.41134,-11.12668 0.91407,-11.12668 0.50273,0 2.30037,1.30236 3.99475,2.89415 1.69437,1.59178 3.26316,2.64178 3.4862,2.33333 0.22304,-0.30845 2.05937,-2.59721 4.08073,-5.08613 l 3.6752,-4.52534 -4.33703,-4.47466 c -5.12832,-5.2911 -5.91002,-5.415 -9.30332,-1.47468 l -2.58352,3 -2.12617,-3 c -2.82019,-3.97926 -4.18599,-3.79603 -9.40409,1.26156 -5.09804,4.94121 -5.4,6.47048 -1.73015,8.76234 2.36792,1.47879 2.66871,3.1205 2.68487,14.65406 0.0107,7.14378 0.34354,14.1887 0.74118,15.65537 0.69902,2.57832 7.98772,8.66667 10.37535,8.66667 0.64475,0 3.2032,-2.21726 5.68544,-4.92723 z m 145.4826,-65.08408 c 3.33166,-5.82961 3.48381,-10.42481 0.36389,-10.99119 -2.50839,-0.45536 -8,8.9475 -8,13.69775 0,5.16449 3.93479,3.76983 7.63611,-2.70656 z M 223.37291,133.3288 c 4.85227,-3.21108 5.30475,-4.01235 5.30475,-9.39394 0,-4.53758 -0.78231,-6.66573 -3.41989,-9.30332 l -3.4199,-3.41989 2.90444,-2.03435 c 2.4054,-1.68482 2.78332,-2.9373 2.19956,-7.28966 -0.91381,-6.812936 -3.90382,-9.973749 -10.4869,-11.085953 -4.43842,-0.749866 -5.85296,-0.396512 -8.54792,2.135282 -2.60978,2.451748 -3.22939,2.620614 -3.22939,0.880116 0,-3.293357 -2.41004,-4.074258 -6.87119,-2.226394 -3.54736,1.469366 -3.94653,2.160046 -3.25285,5.628426 0.43489,2.17444 0.79071,11.978533 0.79071,21.786863 v 17.83334 h 11.36192 c 10.04021,0 11.97901,-0.40838 16.66666,-3.51052 z m -18.40702,-18.82282 0.37844,-14.33333 3.60073,-0.415533 c 5.53331,-0.63856 9.06593,1.879583 9.06593,6.462443 0,2.62497 -0.67194,3.95309 -2,3.95309 -2.48918,0 -7.67621,5.0332 -6.74304,6.54308 0.37815,0.61187 2.38655,1.45229 4.46311,1.8676 3.42869,0.68574 6.9466,5.23614 6.9466,8.98539 0,0.69883 -3.62029,1.2706 -8.04511,1.2706 h -8.0451 z m 39.2925,19.43426 c 3.56283,-3.34711 3.93619,-5.10092 1.08594,-5.10092 -1.6167,0 -2,-2.11519 -2,-11.03666 0,-15.75779 -3.93423,-20.796363 -10.65355,-13.64398 -2.92627,3.11487 -2.98165,3.47044 -0.89908,5.77165 1.67947,1.85579 2.21929,5.03756 2.21929,13.08064 0,13.88864 3.32383,17.43363 10.2474,10.92927 z m 23.50315,-0.84055 c 1.97053,-2.05679 3.58279,-4.09741 3.58279,-4.5347 0,-0.43729 -2.07223,-0.73633 -4.60495,-0.66454 -4.6128,0.13076 -10.06172,-3.29571 -10.06172,-6.32714 0,-0.83565 3,-3.80719 6.66667,-6.60343 3.66666,-2.79624 6.66666,-5.73086 6.66666,-6.52138 0,-2.2602 -5.57414,-7.61188 -7.89908,-7.58385 -1.1555,0.0139 -4.95092,1.81504 -8.43425,4.00245 -6.31265,3.96412 -6.33333,4.0012 -6.33333,11.35082 0,9.80578 2.57285,15.58813 8.1608,18.34094 6.23626,3.07219 8.13124,2.84659 12.25641,-1.45917 z m -11.08388,-21.0903 c 0,-2.96958 0.30392,-3.24436 2.01644,-1.82309 1.53375,1.27288 1.65425,2.10991 0.50341,3.49659 -2.12961,2.56601 -2.51985,2.30684 -2.51985,-1.6735 z m 34.92704,21.24714 c 4.67145,-4.47553 4.68349,-5.46482 0.0729,-5.99532 -3.53197,-0.4064 -3.68149,-0.74025 -4.0704,-9.08856 -0.3234,-6.9421 -0.0713,-8.33502 1.26667,-7 2.55341,2.5477 4.85293,2.00649 7.29216,-1.71625 2.11767,-3.23195 2.0786,-3.52979 -0.87536,-6.67414 l -3.09195,-3.291233 -2.86852,2.694833 -2.86852,2.69484 -2.45697,-2.71493 -2.45697,-2.714923 -3.7684,3.610353 c -4.19972,4.02359 -4.76346,6.44431 -1.7684,7.59362 1.53042,0.58728 2,3.10247 2,10.71254 0,9.15573 0.27884,10.16441 3.51314,12.70852 4.543,3.57352 5.58368,3.48893 10.08056,-0.81935 z M 239.25159,96.271348 c 4.70742,-5.010807 0.97842,-8.520187 -4.13561,-3.892053 -2.82769,2.559026 -3.25759,7.126682 -0.67073,7.126682 0.97216,0 3.13502,-1.45558 4.80634,-3.234629 z M 386.67766,399.40172 c -0.73334,-1.15735 -3.26483,-3.22579 -5.62555,-4.59652 -3.00701,-1.74602 -5.70187,-5.38311 -9,-12.14684 -6.07494,-12.45832 -6.0351,-15.17342 0.29221,-19.92032 2.75,-2.06311 9.46887,-8.22774 14.93082,-13.69916 9.13002,-9.14588 13.00213,-10.9255 9.48898,-4.36114 -1.93686,3.61907 -1.78912,8.16158 0.26544,8.16158 0.92688,0 3.16854,-2.4 4.98143,-5.33334 1.86613,-3.01946 4.33527,-5.33333 5.69121,-5.33333 2.41394,0 22.30879,19.10252 22.30879,21.42031 0,2.91173 -4.46467,0.83377 -10.21357,-4.75364 -3.39538,-3.3 -6.64163,-6 -7.2139,-6 -1.35973,0 2.84499,11.89496 5.79764,16.40129 3.06354,4.67555 2.89448,6.9002 -0.7035,9.25769 -4.37071,2.8638 -5.71942,2.62052 -5.25187,-0.94734 0.294,-2.24355 -0.96795,-4.42364 -4.33333,-7.48608 -2.61147,-2.37639 -4.74814,-5.3043 -4.74814,-6.50647 0,-2.64692 -2.53958,-5.38576 -4.99393,-5.38576 -3.63909,0 -8.3394,6.37221 -8.3394,11.30573 0,3.86366 -0.63428,5.00143 -3.36751,6.04059 -5.03372,1.91383 -5.36002,4.76231 -1.38269,12.06999 2.09631,3.8516 3.41701,8.12392 3.17129,10.2587 -0.3466,3.01119 -0.65694,3.2861 -1.75442,1.55406 z M 86.914707,395.17265 c -6.33133,-5.71265 -7.1968,-6.39552 -14.23704,-11.23331 -3.3,-2.26764 -7.16631,-5.41856 -8.59179,-7.00206 -2.57303,-2.85828 -2.57126,-2.88447 0.2455,-3.62107 1.9221,-0.50264 4.0365,-3.49471 6.55515,-9.27609 2.04482,-4.69378 4.12818,-8.53414 4.62968,-8.53414 0.50149,0 0.598,-1.2 0.21446,-2.66666 -0.38355,-1.46667 -1.30655,-2.66667 -2.05113,-2.66667 -2.80007,0 -10.38497,5.67908 -14.46483,10.83033 -3.1534,3.9815 -4.60972,4.95292 -5.71742,3.81378 -1.10398,-1.13531 1.56703,-4.43164 10.38395,-12.81499 15.35319,-14.5982 16.50475,-15.21555 18.5037,-9.91972 1.10151,2.91824 2.41558,4.0906 4.58504,4.0906 1.862,0 3.04102,-0.80381 3.04102,-2.07325 0,-1.41548 2.43239,-0.15679 7.66667,3.96728 4.216663,3.3223 9.834013,7.70526 12.482993,9.73993 4.85884,3.73201 9.18367,9.82388 9.18367,12.93591 0,2.4549 -3.73371,9.54928 -6.02767,11.45309 -1.08478,0.90029 -1.97233,2.36712 -1.97233,3.25961 0,1.71116 -5.50571,4.71743 -8.63955,4.71743 -1.01608,0 -2.22715,1.19645 -2.69127,2.65877 -1.065113,3.35584 -4.335773,6.67456 -6.577913,6.67456 -0.94504,0 -3.87944,-1.95 -6.52089,-4.33333 z m 6.45538,-16.47281 c 1.83639,-1.20326 3.68068,-3.5495 4.0984,-5.21386 0.91094,-3.62946 -2.48073,-10.69676 -6.0503,-12.60714 -3.69591,-1.97799 -9.40719,-1.71464 -9.40719,0.43377 0,0.99364 -1.71098,3.24364 -3.80218,5 -7.41049,6.22393 -8.63439,13.65891 -2.46811,14.99333 4.91976,1.06468 14.09773,-0.29208 17.62938,-2.6061 z m -45.69083,-31.54187 c -0.71531,-0.90859 -1.71981,-3.45199 -2.23223,-5.65199 -0.51242,-2.2 -2.39516,-6.23713 -4.18385,-8.97141 -1.7887,-2.73428 -3.25218,-5.24656 -3.25218,-5.58284 0,-0.33628 1.95,-0.30031 4.33333,0.08 6.67873,1.06556 13.66667,-4.17308 13.66667,-10.24547 0,-4.25102 -0.34792,-4.64694 -4.4277,-5.03841 -2.46988,-0.23699 -5.84762,0.50552 -7.63892,1.67923 -3.69387,2.42032 -7.61334,9.23361 -6.21354,10.80112 0.52076,0.58314 -0.47228,0.10426 -2.20674,-1.06406 -4.14057,-2.78921 -8.17977,-9.54954 -8.17977,-13.69038 0,-1.98534 -0.7658,-3.30111 -1.92131,-3.30111 -3.66078,0 -3.61829,-2.78737 0.0872,-5.72019 5.18046,-4.10022 20.32185,-10.63378 22.60932,-9.756 1.04031,0.3992 1.89147,2.20926 1.89147,4.02232 0,3.31223 2.13039,5.76792 3.66903,4.22928 0.45372,-0.45372 1.16646,-3.3638 1.58386,-6.46684 l 0.75891,-5.6419 4.54197,8 c 8.72402,15.36606 16.1129,30.08105 16.1129,32.0889 0,1.113 -0.59095,2.74832 -1.31323,3.63404 -0.72228,0.88571 -2.89375,3.58194 -4.82549,5.99162 -3.8977,4.86202 -9.59593,8.25122 -12.27177,7.299 -0.9591,-0.34131 -2.7591,0.24976 -4,1.31346 -3.8269,3.28047 -5.23752,3.70692 -6.58792,1.99163 z m 369.092053,-7.31865 c -8.8526,-9.98983 -9.33615,-12.1178 -4.37871,-19.26967 6.80226,-9.81331 13.33071,-20.24203 15.03786,-24.02185 2.01394,-4.45916 3.91386,-3.58475 3.91386,1.8013 0,3.09988 0.53016,3.91698 2.31803,3.57267 1.27491,-0.24552 2.49827,-1.63952 2.71857,-3.09776 1.1509,-7.61796 1.7308,-8.65136 4.85482,-8.65136 2.91129,0 14.17076,6.63703 19.77525,11.65676 5.87083,5.25827 -0.40821,7.91871 -6.78969,2.8768 -3.49124,-2.75836 -3.54963,-2.76072 -3.9488,-0.15956 -0.22284,1.45212 1.42716,5.52948 3.66666,9.06081 2.23951,3.53134 4.06291,7.05314 4.05199,7.82623 -0.0107,0.77309 -2.15669,3.80563 -4.7684,6.73896 -2.61171,2.93333 -3.80279,3.84983 -2.64683,2.03665 3.15888,-4.95485 2.64628,-10.55953 -1.30029,-14.21709 -1.87112,-1.73409 -4.42112,-3.15949 -5.66667,-3.16757 -1.24554,-0.008 -4.60905,-0.4019 -7.47445,-0.87516 l -5.20981,-0.86051 0.82558,6.02328 c 0.58014,4.23257 0.25874,6.77203 -1.08112,8.54183 -1.15141,1.5209 -1.92349,5.71396 -1.9491,10.58524 -0.0381,7.26377 -1.5299,11.26666 -4.19862,11.26666 -0.52592,0 -4.01348,-3.45 -7.75013,-7.66666 z m 31.76851,-54.05426 c -5.63931,-3.80032 -10.52379,-10.9685 -10.5457,-15.47625 -0.009,-1.90823 1.55946,-8.86949 3.48606,-15.46949 4.74556,-16.25698 4.89396,-16.60614 5.5248,-13 0.77665,4.43957 5.41724,3.95664 6.40622,-0.66667 1.88031,-8.79009 2.45878,-9.29835 9.46988,-8.32032 14.31366,1.99671 17.1943,5.53363 14.94291,18.34727 -0.86713,4.93517 -2.07979,9.54305 -2.6948,10.23972 -0.61501,0.69666 -1.16557,2.79666 -1.22347,4.66666 l -0.1052,3.4 -1.30096,-3.55198 c -1.86649,-5.09608 -4.26384,-5.45234 -11.66728,-1.73379 -3.59801,1.80717 -7.16116,3.28577 -7.9181,3.28577 -0.75694,0 -2.55615,1.5 -3.99826,3.33334 -3.71049,4.71713 -4.57369,4.17442 -4.03913,-2.5394 0.25717,-3.23 0.0176,-5.5946 -0.53241,-5.25464 -0.55,0.33994 -1,3.31132 -1,6.60306 0,4.75936 0.72246,6.65454 3.52802,9.25464 1.94043,1.79832 3.8961,3.26967 4.34595,3.26967 1.50949,0 4.08495,5.20135 2.92915,5.91567 -0.62824,0.38828 -3.15168,-0.64819 -5.60763,-2.30326 z m -427.052833,-3.0548 c -0.44513,-1.15997 -0.80932,-3.88125 -0.80932,-6.04728 0,-2.16602 -2.76934,-9.70825 -6.15409,-16.76049 -3.38475,-7.05224 -6.4535697,-15.05505 -6.8195997,-17.78404 -0.65409,-4.87664 -0.55627,-5.00349 5.7016697,-7.39341 3.50195,-1.33742 9.10539,-2.46332 12.45208,-2.50203 5.74532,-0.0664 6.2176,0.20867 8.46291,4.92964 2.50744,5.27213 3.5782,5.91216 5.93987,3.55049 2.13431,-2.1343 2.95371,-0.0729 4.38158,11.02262 0.69081,5.36812 2.17492,12.76022 3.29803,16.42689 1.12311,3.66667 2.04851,7.08784 2.05645,7.60261 0.008,0.51478 -2.77294,2.85371 -6.17973,5.19764 -5.7188,3.93464 -6.53403,4.1388 -10.62274,2.66031 -3.16536,-1.14461 -5.17675,-1.20099 -7.05152,-0.19765 -3.42164,1.83121 -3.69833,1.78929 -4.65559,-0.7053 z M 446.01099,235.58468 c 0,-0.69006 0.59313,-1.62123 1.31807,-2.06926 0.75581,-0.46712 0.97933,0.0681 0.52401,1.25464 -0.88639,2.3099 -1.84208,2.73252 -1.84208,0.81462 z m 10.66667,-14.0787 c -0.92591,-1.11565 -1.0703,-2 -0.32652,-2 0.73333,0 2.08026,0.9 2.99318,2 0.92591,1.11566 1.0703,2 0.32652,2 -0.73333,0 -2.08026,-0.9 -2.99318,-2 z M 14.571827,199.83646 c -0.0582,-9.34842 -0.72977,-19.13825 -1.49237,-21.75517 -2.70783,-9.29211 1.41271,-10.64756 17.26487,-5.67928 l 6.33334,1.98495 0.26573,7.55952 c 0.87708,24.95153 0.69075,25.5098 -10.28012,30.80096 -4.66634,2.25053 -9.27206,4.0906 -10.23493,4.08902 -1.34811,-0.003 -1.77502,-3.91141 -1.85652,-17 z m 459.439163,10.26998 c 0,-3.70308 -0.91685,-8.50588 -2.03745,-10.67287 -1.9785,-3.826 -2.13326,-3.87721 -5.34899,-1.77019 -4.03804,2.64584 -5.34043,7.1725 -3.54525,12.32215 l 1.34558,3.85993 -4.68528,-1.43794 c -5.80824,-1.7826 -8.59701,-5.89036 -10.0008,-14.73083 -0.59714,-3.76056 -1.32056,-8.12553 -1.6076,-9.69995 -0.37838,-2.07546 0.0832,-2.76413 1.67895,-2.50457 3.59481,0.58477 5.53417,-1.97324 5.53417,-7.29952 0,-7.19311 2.2072,-8.47288 12.28467,-7.12288 l 8.382,1.12288 0.25027,22.33333 c 0.14778,13.18871 -0.26167,22.33334 -1,22.33334 -0.68766,0 -1.25027,-3.0298 -1.25027,-6.73288 z m -29.33333,-49.26712 c 0,-0.73334 1.46458,-1.33334 3.25464,-1.33334 1.79005,0 3.62546,0.6 4.07869,1.33334 0.48077,0.77789 -0.87504,1.33333 -3.25464,1.33333 -2.24328,0 -4.07869,-0.6 -4.07869,-1.33333 z M 20.677667,156.30669 c 0,-0.16065 2.91258,-3.31384 6.47239,-7.00709 7.0729,-7.33802 12.74009,-18.00113 14.89744,-28.03034 2.17515,-10.1119 3.40031,-11.18382 7.34919,-6.42994 13.0317,15.68831 2.96357,34.28045 -21.71902,40.10704 -3.85,0.90884 -7,1.52098 -7,1.36033 z M 440.39682,146.09522 c -6.1683,-3.59593 -5.33542,-25.51787 1.20016,-31.58924 5.09389,-4.73207 8.0563,-3.92893 9.83608,2.66667 0.84101,3.11667 2.67374,8.61748 4.07273,12.22404 2.51281,6.47795 2.51244,6.52915 -0.0313,4.22707 -2.05639,-1.86102 -3.13435,-2.03095 -5.35255,-0.8438 -3.301,1.76664 -3.22737,1.11593 -0.87927,7.77117 1.04408,2.95924 1.54408,5.73468 1.11112,6.16764 -1.23386,1.23385 -7.43724,0.84537 -9.95694,-0.62355 z M 50.010997,96.024351 c 0,-3.297439 24.4516,-31.177888 25.99229,-29.637195 0.67015,0.670155 -2.77307,11.456811 -4.76114,14.915327 -2.18602,3.802861 -0.7234,3.890112 3.55348,0.21198 2.13512,-1.83621 4.88296,-3.339295 6.10632,-3.340191 1.22336,-8.95e-4 3.17336,-0.365821 4.33333,-0.810947 3.55936,-1.365853 2.50061,4.246067 -1.26677,6.714548 -1.8567,1.216558 -3.05286,2.734475 -2.65814,3.373148 0.39472,0.638675 -2.00783,2.202106 -5.339,3.474292 -5.29948,2.023887 -6.49467,2.079754 -9.56004,0.446866 -2.79359,-1.488116 -3.61914,-1.521319 -4.07484,-0.163887 -0.49784,1.482956 -9.63228,6.964355 -11.60571,6.964355 -0.39588,0 -0.71978,-0.96673 -0.71978,-2.148296 z m 363.220243,-6.41359 c -4.31348,-1.878089 -10.24676,-8.35859 -9.55442,-10.435612 0.22241,-0.667232 2.03214,-2.200813 4.02162,-3.407957 3.55646,-2.157931 3.68495,-2.116956 7.64815,2.438656 2.217,2.548404 4.90861,6.224965 5.98135,8.170135 1.73158,3.139864 1.71749,3.626054 -0.1256,4.333333 -2.74367,1.052843 -3.16242,0.995132 -7.97106,-1.098555 z M 367.4783,45.894737 c -6.72421,-6.877684 -5.63983,-7.993796 3.38665,-3.485753 6.43761,3.215103 7.02523,4.354247 3.28001,6.358625 -2.06037,1.102679 -3.30362,0.56692 -6.66666,-2.872872 z m -252.71624,1.747791 c -0.78426,-1.268949 10.48931,-10.803217 12.774,-10.803217 2.33848,0 1.02316,3.611982 -2.52506,6.934085 -4.20835,3.940156 -9.0706,5.775731 -10.24894,3.869132 z M 130.01099,36.918 c 0,-0.690055 0.59313,-1.621217 1.31807,-2.069251 0.75581,-0.467118 0.97934,0.06808 0.52401,1.254644 -0.88639,2.30989 -1.84208,2.732516 -1.84208,0.814607 z m 42.66667,-18.813392 c 0,-1.564104 7.3672,-4.938736 13.42816,-6.150929 3.11799,-0.623598 3.7948,-0.37816 3.20384,1.161844 -1.59968,4.168689 -16.632,8.677922 -16.632,4.989085 z m 137,-0.222105 c -2.01667,-0.695978 -3.66667,-2.115415 -3.66667,-3.154303 0,-2.382777 5.35112,-2.478151 8.53223,-0.152072 3.56172,2.604392 0.0383,4.998747 -4.86556,3.306375 z M 240.34433,7.3991785 c -4.33088,-2.5225071 -2.37419,-3.8932014 5.55761,-3.8932014 9.89137,0 12.76152,0.9405964 10.64649,3.4890444 -1.79288,2.16029 -12.72104,2.432857 -16.2041,0.404157 z"
       id="path14" />
  </g>
</svg>
