<?xml version="1.0" encoding="UTF-8"?><svg xmlns="http://www.w3.org/2000/svg" xmlns:xlink="http://www.w3.org/1999/xlink" fill-opacity="1" color-rendering="auto" color-interpolation="auto" text-rendering="auto" stroke="black" stroke-linecap="square" width="760" stroke-miterlimit="10" shape-rendering="auto" stroke-opacity="1" fill="black" stroke-dasharray="none" font-weight="normal" stroke-width="1" height="393" font-family="'Dialog'" font-style="normal" stroke-linejoin="miter" font-size="12px" stroke-dashoffset="0" image-rendering="auto">
  <!--Generated by ySVG 2.5-->
  <defs id="genericDefs"/>
  <g>
    <defs id="defs1">
      <clipPath clipPathUnits="userSpaceOnUse" id="clipPath1">
        <path d="M0 0 L760 0 L760 393 L0 393 L0 0 Z"/>
      </clipPath>
      <clipPath clipPathUnits="userSpaceOnUse" id="clipPath2">
        <path d="M273 106 L1033 106 L1033 499 L273 499 L273 106 Z"/>
      </clipPath>
    </defs>
    <g fill="white" text-rendering="geometricPrecision" shape-rendering="geometricPrecision" transform="translate(-273,-106)" stroke="white">
      <rect x="273" width="760" height="393" y="106" clip-path="url(#clipPath2)" stroke="none"/>
    </g>
    <g text-rendering="geometricPrecision" shape-rendering="geometricPrecision" transform="matrix(1,0,0,1,-273,-106)">
      <rect x="667.587" width="2" height="2" y="380.552" clip-path="url(#clipPath2)" stroke="none"/>
      <rect x="621.68" width="2" height="2" y="380.552" clip-path="url(#clipPath2)" stroke="none"/>
      <rect x="588" width="2" height="2" y="228.5" clip-path="url(#clipPath2)" stroke="none"/>
      <rect x="633.907" width="2" height="2" y="228.5" clip-path="url(#clipPath2)" stroke="none"/>
      <rect x="711.1214" width="2" height="2" y="228.5" clip-path="url(#clipPath2)" stroke="none"/>
      <rect x="877.4139" width="2" height="2" y="228.5" clip-path="url(#clipPath2)" stroke="none"/>
      <rect x="541.6589" width="2" height="2" y="228.5" clip-path="url(#clipPath2)" stroke="none"/>
      <rect x="464.8923" width="2" height="2" y="228.5" clip-path="url(#clipPath2)" stroke="none"/>
      <rect x="541.6589" width="2" height="2" y="307.224" clip-path="url(#clipPath2)" stroke="none"/>
      <rect x="464.8923" width="2" height="2" y="307.224" clip-path="url(#clipPath2)" stroke="none"/>
      <rect x="289.5446" width="2" height="2" y="228.5" clip-path="url(#clipPath2)" stroke="none"/>
      <rect x="1014.981" width="2" height="2" y="228.5" clip-path="url(#clipPath2)" stroke="none"/>
      <rect x="556.2216" width="2" height="2" y="307.224" clip-path="url(#clipPath2)" stroke="none"/>
      <rect x="457.1644" width="2" height="2" y="307.224" clip-path="url(#clipPath2)" stroke="none"/>
      <rect x="541.6589" width="2" height="2" y="380.552" clip-path="url(#clipPath2)" stroke="none"/>
      <rect x="464.8923" width="2" height="2" y="380.552" clip-path="url(#clipPath2)" stroke="none"/>
      <rect x="892.3751" width="2" height="2" y="380.552" clip-path="url(#clipPath2)" stroke="none"/>
      <rect x="439.8844" width="2" height="2" y="380.552" clip-path="url(#clipPath2)" stroke="none"/>
      <rect x="621.68" width="2" height="2" y="438.732" clip-path="url(#clipPath2)" stroke="none"/>
      <rect x="667.587" width="2" height="2" y="438.732" clip-path="url(#clipPath2)" stroke="none"/>
      <rect x="618.1964" width="2" height="2" y="438.732" clip-path="url(#clipPath2)" stroke="none"/>
      <rect x="672.0352" width="2" height="2" y="438.732" clip-path="url(#clipPath2)" stroke="none"/>
      <rect x="439.8844" width="2" height="10" y="155.7337" clip-path="url(#clipPath2)" stroke="none"/>
      <rect x="892.3751" width="2" height="10" y="155.7337" clip-path="url(#clipPath2)" stroke="none"/>
      <rect x="582.9628" width="2" height="10" y="188.5" clip-path="url(#clipPath2)" stroke="none"/>
      <rect x="637.6682" width="2" height="10" y="188.5" clip-path="url(#clipPath2)" stroke="none"/>
      <rect x="621.68" width="2" height="2" y="396.0222" clip-path="url(#clipPath2)" stroke="none"/>
      <rect x="667.587" width="2" height="2" y="396.0222" clip-path="url(#clipPath2)" stroke="none"/>
      <text stroke-linecap="butt" x="618.1866" y="134.9997" clip-path="url(#clipPath2)" font-family="'Source Code Pro'" stroke="none" stroke-miterlimit="1.45" xml:space="preserve">input sequence</text>
      <text stroke-linecap="butt" x="561.196" y="175.9334" clip-path="url(#clipPath2)" font-family="'Source Code Pro'" stroke="none" stroke-miterlimit="1.45" xml:space="preserve">target sequence</text>
      <text stroke-linecap="butt" x="413.334" y="219.526" clip-path="url(#clipPath2)" font-family="'Source Code Pro'" stroke="none" stroke-miterlimit="1.45" xml:space="preserve">1.</text>
      <text stroke-linecap="butt" x="413.334" y="302.266" clip-path="url(#clipPath2)" font-family="'Source Code Pro'" stroke="none" stroke-miterlimit="1.45" xml:space="preserve">2.</text>
      <text stroke-linecap="butt" x="413.334" y="374.886" clip-path="url(#clipPath2)" font-family="'Source Code Pro'" stroke="none" stroke-miterlimit="1.45" xml:space="preserve">3.</text>
      <text stroke-linecap="butt" x="413.334" y="397.2882" clip-path="url(#clipPath2)" font-family="'Source Code Pro'" stroke="none" stroke-miterlimit="1.45" xml:space="preserve">4.</text>
      <text stroke-linecap="butt" x="413.334" y="443.998" clip-path="url(#clipPath2)" font-family="'Source Code Pro'" stroke="none" stroke-miterlimit="1.45" xml:space="preserve">5.</text>
    </g>
    <g stroke-linecap="butt" transform="matrix(1,0,0,1,-273,-106)" fill="rgb(204,0,102)" text-rendering="geometricPrecision" shape-rendering="geometricPrecision" stroke="rgb(204,0,102)" stroke-width="7" stroke-miterlimit="1.45">
      <path fill="none" d="M623.68 381.552 L648.337 381.552" clip-path="url(#clipPath2)"/>
      <path d="M667.587 381.552 L646.587 371.052 L646.587 392.052 Z" clip-path="url(#clipPath2)" stroke="none"/>
      <path fill="none" d="M590 229.5 L614.657 229.5" clip-path="url(#clipPath2)" stroke="rgb(255,51,102)"/>
      <path fill="rgb(255,51,102)" d="M633.907 229.5 L612.907 219 L612.907 240 Z" clip-path="url(#clipPath2)" stroke="none"/>
      <path fill="none" d="M730.9965 229.5 L787.0356 229.5 L877.4139 229.5" stroke-width="6" clip-path="url(#clipPath2)" stroke="rgb(51,255,153)"/>
      <path fill="rgb(51,255,153)" d="M713.1215 229.5 L732.6215 239.25 L732.6215 219.75 Z" stroke-width="6" clip-path="url(#clipPath2)" stroke="none"/>
      <path fill="none" d="M466.8923 229.5 L527.4107 229.5 L528.6589 229.5" stroke-width="6" clip-path="url(#clipPath2)" stroke="rgb(51,255,153)"/>
      <path fill="rgb(51,255,153)" d="M541.6589 229.5 L522.1589 221.375 L527.0339 229.5 L522.1589 237.625 Z" stroke-width="6" clip-path="url(#clipPath2)" stroke="none"/>
      <path fill="none" d="M466.8923 308.224 L527.4107 308.224 L528.6589 308.224" stroke-width="6" clip-path="url(#clipPath2)" stroke="rgb(0,204,153)"/>
      <path fill="rgb(0,204,153)" d="M541.6589 308.224 L522.1589 300.099 L527.0339 308.224 L522.1589 316.349 Z" stroke-width="6" clip-path="url(#clipPath2)" stroke="none"/>
      <path fill="none" d="M291.5446 229.5 L1014.981 229.5" stroke-width="1" clip-path="url(#clipPath2)" stroke="black"/>
      <path fill="none" d="M459.1644 308.224 L556.2216 308.224" stroke-width="1" clip-path="url(#clipPath2)" stroke="black"/>
      <path fill="none" d="M466.8923 381.552 L527.4107 381.552 L528.6589 381.552" stroke-width="6" clip-path="url(#clipPath2)" stroke="rgb(0,204,153)"/>
      <path fill="rgb(0,204,153)" d="M541.6589 381.552 L522.1589 373.427 L527.0339 381.552 L522.1589 389.677 Z" stroke-width="6" clip-path="url(#clipPath2)" stroke="none"/>
      <path fill="none" d="M441.8844 381.552 L892.3751 381.552" stroke-width="1" clip-path="url(#clipPath2)" stroke="black"/>
      <path fill="none" d="M623.68 439.732 L648.337 439.732" clip-path="url(#clipPath2)"/>
      <path d="M667.587 439.732 L646.587 429.232 L646.587 450.232 Z" clip-path="url(#clipPath2)" stroke="none"/>
      <path fill="none" d="M620.1964 439.732 L672.0352 439.732" stroke-width="1" clip-path="url(#clipPath2)" stroke="black"/>
      <path fill="none" d="M441.8651 155.7337 L892.3555 155.7337" stroke-width="1" clip-path="url(#clipPath2)" stroke="black"/>
      <path fill="none" d="M584.9634 188.5 L637.6455 188.5" stroke-width="1" clip-path="url(#clipPath2)" stroke="black"/>
      <path fill="none" d="M623.68 397.0222 L648.337 397.0222" clip-path="url(#clipPath2)" stroke="rgb(255,51,102)"/>
      <path fill="rgb(255,51,102)" d="M667.587 397.0222 L646.587 386.5222 L646.587 407.5222 Z" clip-path="url(#clipPath2)" stroke="none"/>
    </g>
  </g>
</svg>
