<?xml version="1.0" encoding="UTF-8" standalone="no"?>
<svg
   xmlns:dc="http://purl.org/dc/elements/1.1/"
   xmlns:cc="http://creativecommons.org/ns#"
   xmlns:rdf="http://www.w3.org/1999/02/22-rdf-syntax-ns#"
   xmlns:svg="http://www.w3.org/2000/svg"
   xmlns="http://www.w3.org/2000/svg"
   xmlns:sodipodi="http://sodipodi.sourceforge.net/DTD/sodipodi-0.dtd"
   xmlns:inkscape="http://www.inkscape.org/namespaces/inkscape"
   width="42.606762mm"
   height="41.555035mm"
   viewBox="0 0 42.606762 41.555035"
   version="1.1"
   id="svg239"
   inkscape:version="1.0.2 (e86c870879, 2021-01-15, custom)"
   sodipodi:docname="github.svg">
  <defs
     id="defs233" />
  <sodipodi:namedview
     id="base"
     pagecolor="#ffffff"
     bordercolor="#666666"
     borderopacity="1.0"
     inkscape:pageopacity="0.0"
     inkscape:pageshadow="2"
     inkscape:zoom="1.979899"
     inkscape:cx="18.9955"
     inkscape:cy="105.36711"
     inkscape:document-units="mm"
     inkscape:current-layer="layer1"
     inkscape:document-rotation="0"
     showgrid="false"
     fit-margin-top="0"
     fit-margin-left="0"
     fit-margin-right="0"
     fit-margin-bottom="0"
     inkscape:window-width="1920"
     inkscape:window-height="1020"
     inkscape:window-x="1600"
     inkscape:window-y="32"
     inkscape:window-maximized="1" />
  <metadata
     id="metadata236">
    <rdf:RDF>
      <cc:Work
         rdf:about="">
        <dc:format>image/svg+xml</dc:format>
        <dc:type
           rdf:resource="http://purl.org/dc/dcmitype/StillImage" />
        <dc:title></dc:title>
      </cc:Work>
    </rdf:RDF>
  </metadata>
  <g
     inkscape:label="Layer 1"
     inkscape:groupmode="layer"
     id="layer1"
     transform="translate(-74.833989,-70.223943)">
    <path
       d="m 96.137539,70.223943 c -11.76409,0 -21.30355,9.537701 -21.30355,21.303546 0,9.412461 6.10411,17.397941 14.56866,20.214871 1.06469,0.19721 1.45557,-0.46214 1.45557,-1.02482 0,-0.508 -0.0198,-2.18616 -0.0289,-3.96628 -5.92667,1.2887 -7.17727,-2.51354 -7.17727,-2.51354 -0.96908,-2.46239 -2.36537,-3.11714 -2.36537,-3.11714 -1.93287,-1.322216 0.1457,-1.295052 0.1457,-1.295052 2.13924,0.149931 3.26566,2.195692 3.26566,2.195692 1.90006,3.25649 4.98369,2.31493 6.19936,1.77059 0.19121,-1.37689 0.74331,-2.31705 1.35255,-2.84868 -4.7318,-0.53869 -9.70597,-2.365377 -9.70597,-10.528302 0,-2.325865 0.8322,-4.226279 2.19498,-5.718176 -0.22119,-0.536928 -0.95038,-2.703336 0.20638,-5.637742 0,0 1.78893,-0.572558 5.85999,2.183695 1.69933,-0.472017 3.52178,-0.708731 5.33224,-0.716845 1.81045,0.0081 3.63431,0.244828 5.336821,0.716845 4.06611,-2.756253 5.85258,-2.183695 5.85258,-2.183695 1.15958,2.934406 0.43004,5.100814 0.20885,5.637742 1.36595,1.491897 2.19251,3.392311 2.19251,5.718176 0,8.182328 -4.98369,9.983962 -9.72749,10.511372 0.76411,0.6611 1.44497,1.95756 1.44497,3.94511 0,2.85044 -0.0247,5.14456 -0.0247,5.84623 0,0.56692 0.38347,1.2312 1.46332,1.022 8.45997,-2.82011 14.55632,-10.80276 14.55632,-20.212051 0,-11.765845 -9.53805,-21.303546 -21.303191,-21.303546"
       style="fill:#1b1817;fill-opacity:1;fill-rule:evenodd;stroke:none;stroke-width:0.0352778"
       id="path44" />
  </g>
</svg>
