<?xml version="1.0" encoding="UTF-8" standalone="no"?>
<svg
   xmlns:dc="http://purl.org/dc/elements/1.1/"
   xmlns:cc="http://creativecommons.org/ns#"
   xmlns:rdf="http://www.w3.org/1999/02/22-rdf-syntax-ns#"
   xmlns:svg="http://www.w3.org/2000/svg"
   xmlns="http://www.w3.org/2000/svg"
   xmlns:sodipodi="http://sodipodi.sourceforge.net/DTD/sodipodi-0.dtd"
   xmlns:inkscape="http://www.inkscape.org/namespaces/inkscape"
   width="165.56531mm"
   height="73.083mm"
   viewBox="0 0 165.56531 73.083"
   version="1.1"
   id="svg2720"
   inkscape:version="1.0.2 (e86c870879, 2021-01-15, custom)"
   sodipodi:docname="RNAcode_logo_text_inv.svg">
  <defs
     id="defs2714" />
  <sodipodi:namedview
     id="base"
     pagecolor="#ffffff"
     bordercolor="#666666"
     borderopacity="1.0"
     inkscape:pageopacity="0.0"
     inkscape:pageshadow="2"
     inkscape:zoom="2.254863"
     inkscape:cx="312.87932"
     inkscape:cy="174.78858"
     inkscape:document-units="mm"
     inkscape:current-layer="layer1"
     inkscape:document-rotation="0"
     showgrid="false"
     fit-margin-top="0"
     fit-margin-left="0"
     fit-margin-right="0"
     fit-margin-bottom="0"
     inkscape:window-width="1920"
     inkscape:window-height="1020"
     inkscape:window-x="1600"
     inkscape:window-y="32"
     inkscape:window-maximized="1" />
  <metadata
     id="metadata2717">
    <rdf:RDF>
      <cc:Work
         rdf:about="">
        <dc:format>image/svg+xml</dc:format>
        <dc:type
           rdf:resource="http://purl.org/dc/dcmitype/StillImage" />
        <dc:title></dc:title>
      </cc:Work>
    </rdf:RDF>
  </metadata>
  <g
     inkscape:label="Layer 1"
     inkscape:groupmode="layer"
     id="layer1"
     transform="translate(-14.651783,-101.92052)">
    <g
       id="g674"
       transform="matrix(0.35277777,0,0,-0.35277777,21.474505,119.53465)">
      <path
         d="m 0,0 h 10.986 c 3.859,0 6.753,1.283 8.683,3.849 1.93,2.565 2.895,5.996 2.895,10.295 0,9.604 -3.75,14.406 -11.249,14.406 H 0 Z M 9.604,-16.117 H 0 v -34.997 h -19.34 v 95.781 h 30.852 c 9.692,0 17.18,-2.511 22.466,-7.532 5.284,-5.022 7.926,-12.159 7.926,-21.412 0,-12.72 -4.627,-21.622 -13.88,-26.709 l 16.775,-39.207 v -0.921 H 24.011 Z"
         style="fill:#ffffff;fill-opacity:1;fill-rule:nonzero;stroke:none"
         id="path676" />
    </g>
    <g
       id="g678"
       transform="matrix(0.35277777,0,0,-0.35277777,64.570226,137.5666)">
      <path
         d="M 0,0 H -19.341 L -47.628,62.824 V 0 h -19.34 v 95.781 h 19.34 L -19.275,32.892 V 95.781 H 0 Z"
         style="fill:#ffffff;fill-opacity:1;fill-rule:nonzero;stroke:none"
         id="path680" />
    </g>
    <g
       id="g682"
       transform="matrix(0.35277777,0,0,-0.35277777,78.772988,124.96513)">
      <path
         d="M 0,0 H 17.893 L 8.946,34.142 Z M 22.169,-16.117 H -4.21 L -9.341,-35.721 H -29.8 L 0.131,60.061 h 17.696 l 30.13,-95.782 H 27.3 Z"
         style="fill:#ffffff;fill-opacity:1;fill-rule:nonzero;stroke:none"
         id="path684" />
    </g>
    <g
       id="g686"
       transform="matrix(0.35277777,0,0,-0.35277777,107.92125,134.52629)">
      <path
         d="m 0,0 c 3.858,0 6.95,1.194 9.275,3.585 2.325,2.39 3.596,5.799 3.816,10.229 H 24.077 C 23.813,6.973 21.39,1.304 16.808,-3.191 12.225,-7.687 6.622,-9.934 0,-9.934 c -8.815,0 -15.537,2.774 -20.163,8.322 -4.628,5.548 -6.94,13.803 -6.94,24.767 v 7.828 c 0,10.745 2.302,18.913 6.907,24.505 4.605,5.592 11.315,8.388 20.13,8.388 7.279,0 13.058,-2.303 17.334,-6.907 4.276,-4.606 6.545,-10.899 6.809,-18.88 H 13.091 c -0.263,5.263 -1.525,9.209 -3.783,11.841 -2.259,2.631 -5.384,3.947 -9.374,3.947 -5.175,0 -9.012,-1.7 -11.512,-5.099 -2.5,-3.399 -3.794,-8.979 -3.881,-16.742 v -9.078 c 0,-8.377 1.238,-14.298 3.716,-17.762 C -9.266,1.731 -5.351,0 0,0"
         style="fill:#ffffff;fill-opacity:1;fill-rule:nonzero;stroke:none"
         id="path688" />
    </g>
    <g
       id="g690"
       transform="matrix(0.35277777,0,0,-0.35277777,122.49711,126.21848)">
      <path
         d="m 0,0 c 0,-7.324 1.436,-13.08 4.309,-17.268 2.872,-4.188 6.743,-6.282 11.611,-6.282 10.262,0 15.547,7.41 15.854,22.235 V 6.71 c 0,7.28 -1.447,13.036 -4.342,17.269 -2.894,4.232 -6.776,6.348 -11.643,6.348 -4.781,0 -8.608,-2.116 -11.48,-6.348 C 1.436,19.746 0,14.013 0,6.776 Z m -11.644,6.71 c 0,10.351 2.511,18.54 7.533,24.57 5.021,6.031 11.654,9.046 19.9,9.046 8.244,0 14.877,-2.938 19.899,-8.815 5.021,-5.877 7.598,-13.88 7.729,-24.011 V 0 c 0,-10.306 -2.499,-18.463 -7.499,-24.472 -4.999,-6.008 -11.666,-9.011 -19.998,-9.011 -8.246,0 -14.857,2.916 -19.834,8.749 -4.978,5.832 -7.555,13.726 -7.73,23.682 z"
         style="fill:#ffffff;fill-opacity:1;fill-rule:nonzero;stroke:none"
         id="path692" />
    </g>
    <g
       id="g694"
       transform="matrix(0.35277777,0,0,-0.35277777,144.45304,126.20539)">
      <path
         d="m 0,0 c 0,-7.972 1.184,-13.831 3.552,-17.575 2.368,-3.746 6.228,-5.617 11.578,-5.617 5.789,0 10.109,2.912 12.96,8.737 v 35.874 c -2.983,5.694 -7.281,8.542 -12.893,8.542 -5.352,0 -9.211,-1.873 -11.579,-5.617 C 1.25,20.598 0.043,14.849 0,7.097 Z m -11.644,6.607 c 0,10.964 2.049,19.319 6.151,25.064 4.1,5.745 9.987,8.618 17.663,8.618 6.797,0 12.105,-2.763 15.92,-8.289 V 68.839 H 39.734 V -32.205 H 29.077 l -0.592,7.631 c -3.816,-5.965 -9.276,-8.946 -16.381,-8.946 -7.368,0 -13.147,2.861 -17.334,8.584 -4.189,5.723 -6.327,13.803 -6.414,24.242 z"
         style="fill:#ffffff;fill-opacity:1;fill-rule:nonzero;stroke:none"
         id="path696" />
    </g>
    <g
       id="g698"
       transform="matrix(0.35277777,0,0,-0.35277777,171.39835,115.51972)">
      <path
         d="m 0,0 c -4.825,0 -8.398,-1.656 -10.723,-4.967 -2.325,-3.311 -3.64,-8.453 -3.947,-15.427 h 28.024 v 1.58 C 13.047,-12.062 11.83,-7.236 9.703,-4.342 7.575,-1.447 4.342,0 0,0 m 1.315,-63.811 c -8.859,0 -15.656,2.642 -20.392,7.927 -4.736,5.284 -7.15,13.035 -7.236,23.255 v 8.617 c 0,10.614 2.312,18.935 6.94,24.965 4.626,6.03 11.084,9.046 19.373,9.046 8.332,0 14.56,-2.654 18.683,-7.96 4.122,-5.307 6.226,-13.574 6.315,-24.801 v -7.631 h -39.733 v -1.644 c 0,-7.631 1.435,-13.18 4.308,-16.644 2.872,-3.464 7.006,-5.196 12.401,-5.196 3.421,0 6.435,0.647 9.045,1.941 2.609,1.292 5.054,3.343 7.335,6.15 l 6.052,-7.367 C 19.362,-60.259 11.665,-63.811 1.315,-63.811"
         style="fill:#ffffff;fill-opacity:1;fill-rule:nonzero;stroke:none"
         id="path700" />
    </g>
    <g
       id="g702"
       transform="matrix(0.35277777,0,0,-0.35277777,22.760733,165.34922)">
      <path
         d="m 0,0 2.302,-14.21 2.895,13.552 17.17,70.388 h 6.71 L 45.983,-0.658 48.812,-14.341 51.312,0 65.455,69.73 h 7.631 L 52.693,-26.051 H 45.588 L 27.629,48.614 25.722,57.495 23.879,48.614 5.526,-26.051 H -1.645 L -21.972,69.73 h 7.697 z"
         style="fill:#ffffff;fill-opacity:1;fill-rule:nonzero;stroke:none"
         id="path704" />
    </g>
    <g
       id="g706"
       transform="matrix(0.35277777,0,0,-0.35277777,58.52806,151.3787)">
      <path
         d="m 0,0 c -5.746,0 -10.164,-2.029 -13.256,-6.085 -3.092,-4.057 -4.791,-9.989 -5.098,-17.795 h 34.932 v 1.908 C 16.226,-7.324 10.7,0 0,0 m 1.25,-66.968 c -8.377,0 -14.933,2.74 -19.669,8.223 -4.737,5.481 -7.149,13.288 -7.237,23.419 v 8.683 c 0,10.438 2.28,18.627 6.842,24.571 4.56,5.942 10.832,8.914 18.814,8.914 7.718,0 13.606,-2.523 17.663,-7.566 4.056,-5.044 6.128,-12.761 6.216,-23.156 v -6.841 h -42.298 v -4.012 c 0,-8.158 1.743,-14.452 5.229,-18.881 3.487,-4.43 8.409,-6.644 14.769,-6.644 7.016,0 12.696,2.566 17.038,7.696 l 3.815,-4.868 C 17.783,-63.789 10.723,-66.968 1.25,-66.968"
         style="fill:#ffffff;fill-opacity:1;fill-rule:nonzero;stroke:none"
         id="path708" />
    </g>
    <g
       id="g710"
       transform="matrix(0.35277777,0,0,-0.35277777,87.003152,160.82411)">
      <path
         d="m 0,0 c 0,9.034 -1.338,15.723 -4.013,20.064 -2.675,4.342 -7.061,6.513 -13.156,6.513 -8.115,0 -13.749,-4.276 -16.907,-12.828 v -35.26 c 1.491,-3.728 3.684,-6.611 6.578,-8.65 2.895,-2.04 6.381,-3.06 10.46,-3.06 5.832,0 10.12,2.116 12.861,6.349 2.74,4.231 4.133,10.821 4.177,19.768 z m 7.302,-6.644 c 0,-10.964 -1.919,-19.297 -5.756,-24.998 -3.838,-5.702 -9.55,-8.551 -17.137,-8.551 -8.377,0 -14.582,3.618 -18.617,10.854 l -0.329,-9.539 h -6.776 V 62.166 h 7.237 V 22.367 c 3.99,7.499 10.108,11.249 18.354,11.249 7.674,0 13.397,-2.709 17.169,-8.124 C 5.219,20.075 7.17,11.995 7.302,1.25 Z"
         style="fill:#ffffff;fill-opacity:1;fill-rule:nonzero;stroke:none"
         id="path712" />
    </g>
  </g>
</svg>
