<?xml version="1.0" encoding="UTF-8" standalone="no"?>
<svg
   xmlns:dc="http://purl.org/dc/elements/1.1/"
   xmlns:cc="http://creativecommons.org/ns#"
   xmlns:rdf="http://www.w3.org/1999/02/22-rdf-syntax-ns#"
   xmlns:svg="http://www.w3.org/2000/svg"
   xmlns="http://www.w3.org/2000/svg"
   xmlns:sodipodi="http://sodipodi.sourceforge.net/DTD/sodipodi-0.dtd"
   xmlns:inkscape="http://www.inkscape.org/namespaces/inkscape"
   id="svg781"
   version="1.1"
   viewBox="0 0 85.846352 42.621906"
   height="42.621906mm"
   width="85.846352mm"
   inkscape:version="1.0.2 (e86c870879, 2021-01-15, custom)"
   sodipodi:docname="RNAcode_logo_full.svg">
  <defs
     id="defs775">
    <clipPath
       clipPathUnits="userSpaceOnUse"
       id="clipPath52">
      <path
         d="M 580.08,816.375 H 823.424 V 695.556 H 580.08 Z"
         id="path50" />
    </clipPath>
  </defs>
  <sodipodi:namedview
     id="base"
     pagecolor="#ffffff"
     bordercolor="#666666"
     borderopacity="1.0"
     inkscape:pageopacity="0.0"
     inkscape:pageshadow="2"
     inkscape:zoom="4.2070076"
     inkscape:cx="162.22933"
     inkscape:cy="86.64172"
     inkscape:document-units="mm"
     inkscape:current-layer="g136"
     inkscape:document-rotation="0"
     showgrid="false"
     inkscape:window-width="1920"
     inkscape:window-height="1020"
     inkscape:window-x="1600"
     inkscape:window-y="32"
     inkscape:window-maximized="1"
     fit-margin-top="0"
     fit-margin-left="0"
     fit-margin-right="0"
     fit-margin-bottom="0" />
  <metadata
     id="metadata778">
    <rdf:RDF>
      <cc:Work
         rdf:about="">
        <dc:format>image/svg+xml</dc:format>
        <dc:type
           rdf:resource="http://purl.org/dc/dcmitype/StillImage" />
        <dc:title></dc:title>
      </cc:Work>
    </rdf:RDF>
  </metadata>
  <g
     inkscape:label="Layer 1"
     inkscape:groupmode="layer"
     id="layer1"
     transform="translate(-47.035159,-149.53428)">
    <g
       id="g46"
       transform="matrix(0.35277777,0,0,-0.35277777,-157.60417,437.53288)">
      <g
         id="g48" />
      <g
         id="g138">
        <g
           clip-path="url(#clipPath52)"
           opacity="0.100006"
           id="g136">
          <path
             d="M 823.424,695.556 H 580.08 v 120.818 h 243.344 z"
             style="fill:#000000;fill-opacity:1;fill-rule:nonzero;stroke:none"
             id="path54" />
          <g
             transform="translate(594.7905,792.6824)"
             id="g58">
            <path
               d="M 0,0 H 7.95 L 3.967,10.937 Z m 8.865,-2.521 h -9.796 l -2.2,-6.119 h -3.18 L 2.618,14.743 H 5.316 L 14.261,-8.64 h -3.163 z"
               style="fill:#ffffff;fill-opacity:1;fill-rule:nonzero;stroke:none"
               id="path56" />
          </g>
          <g
             transform="translate(642.2158,791.4622)"
             id="g62">
            <path
               d="m 0,0 c -0.289,-2.474 -1.202,-4.382 -2.738,-5.725 -1.537,-1.344 -3.579,-2.016 -6.127,-2.016 -2.762,0 -4.976,0.991 -6.641,2.971 -1.665,1.981 -2.497,4.631 -2.497,7.95 v 2.248 c 0,2.174 0.388,4.085 1.164,5.734 0.776,1.648 1.877,2.915 3.3,3.798 1.424,0.883 3.073,1.325 4.947,1.325 2.484,0 4.475,-0.694 5.974,-2.08 C -1.119,12.818 -0.247,10.899 0,8.447 h -3.1 c -0.268,1.869 -0.848,3.222 -1.742,4.06 -0.894,0.837 -2.144,1.256 -3.75,1.256 -1.97,0 -3.515,-0.728 -4.634,-2.186 -1.118,-1.457 -1.678,-3.531 -1.678,-6.22 V 3.09 c 0,-2.539 0.53,-4.559 1.59,-6.059 1.06,-1.501 2.543,-2.25 4.449,-2.25 1.713,0 3.027,0.387 3.943,1.164 0.915,0.776 1.523,2.128 1.822,4.055 z"
               style="fill:#ffffff;fill-opacity:1;fill-rule:nonzero;stroke:none"
               id="path60" />
          </g>
          <g
             transform="translate(675.106,804.9041)"
             id="g66">
            <path
               d="m 0,0 h -7.516 v -20.861 h -3.067 V 0 h -7.5 V 2.521 H 0 Z"
               style="fill:#ffffff;fill-opacity:1;fill-rule:nonzero;stroke:none"
               id="path64" />
          </g>
          <g
             transform="translate(708.3828,787.1102)"
             id="g70">
            <path
               d="m 0,0 c -0.792,-1.135 -1.897,-1.983 -3.316,-2.545 -1.419,-0.563 -3.071,-0.844 -4.955,-0.844 -1.906,0 -3.597,0.447 -5.075,1.341 -1.477,0.894 -2.62,2.165 -3.428,3.815 -0.809,1.648 -1.224,3.559 -1.245,5.733 v 2.04 c 0,3.522 0.821,6.252 2.465,8.19 1.644,1.937 3.953,2.907 6.93,2.907 2.441,0 4.406,-0.624 5.894,-1.871 1.488,-1.247 2.398,-3.017 2.73,-5.308 h -3.083 c -0.579,3.104 -2.42,4.657 -5.525,4.657 -2.066,0 -3.632,-0.726 -4.697,-2.177 -1.066,-1.453 -1.604,-3.556 -1.614,-6.31 V 7.716 c 0,-2.625 0.599,-4.713 1.798,-6.261 1.199,-1.548 2.821,-2.322 4.866,-2.322 1.156,0 2.169,0.127 3.036,0.384 0.867,0.256 1.584,0.689 2.152,1.298 V 6.054 H -8.479 V 8.576 H 0 Z"
               style="fill:#ffffff;fill-opacity:1;fill-rule:nonzero;stroke:none"
               id="path68" />
          </g>
          <g
             transform="translate(599.7373,744.574)"
             id="g74">
            <path
               d="m 0,0 h -2.987 v 19.802 l -5.991,-2.201 v 2.698 l 8.512,3.197 H 0 Z"
               style="fill:#ffffff;fill-opacity:1;fill-rule:nonzero;stroke:none"
               id="path72" />
          </g>
          <g
             transform="translate(636.4341,758.6102)"
             id="g78">
            <path
               d="m 0,0 c 0,2.516 -0.354,4.35 -1.06,5.5 -0.707,1.151 -1.826,1.727 -3.357,1.727 -1.52,0 -2.628,-0.573 -3.324,-1.719 C -8.437,4.363 -8.796,2.602 -8.817,0.225 v -4.754 c 0,-2.527 0.366,-4.392 1.1,-5.596 0.733,-1.206 1.844,-1.808 3.332,-1.808 1.467,0 2.556,0.568 3.269,1.703 0.712,1.135 1.084,2.922 1.116,5.364 z m 2.971,-4.063 c 0,-3.48 -0.595,-6.065 -1.783,-7.757 -1.188,-1.692 -3.046,-2.537 -5.573,-2.537 -2.494,0 -4.341,0.827 -5.54,2.481 -1.2,1.654 -1.821,4.125 -1.863,7.411 v 3.967 c 0,3.437 0.594,5.99 1.783,7.661 1.188,1.67 3.051,2.505 5.588,2.505 2.516,0 4.369,-0.806 5.557,-2.417 1.189,-1.612 1.798,-4.098 1.831,-7.46 z"
               style="fill:#ffffff;fill-opacity:1;fill-rule:nonzero;stroke:none"
               id="path76" />
          </g>
          <g
             transform="translate(669.2764,744.574)"
             id="g82">
            <path
               d="m 0,0 h -2.987 v 19.802 l -5.99,-2.201 v 2.698 l 8.511,3.197 H 0 Z"
               style="fill:#ffffff;fill-opacity:1;fill-rule:nonzero;stroke:none"
               id="path80" />
          </g>
          <g
             transform="translate(704.0459,744.574)"
             id="g86">
            <path
               d="m 0,0 h -2.987 v 19.802 l -5.99,-2.201 v 2.698 l 8.512,3.197 H 0 Z"
               style="fill:#ffffff;fill-opacity:1;fill-rule:nonzero;stroke:none"
               id="path84" />
          </g>
          <g
             transform="translate(594.7266,728.4886)"
             id="g90">
            <path
               d="M 0,0 7.645,-19.079 15.289,0 h 3.999 v -23.383 h -3.084 v 9.106 l 0.29,9.829 -7.677,-18.935 H 6.456 l -7.661,18.886 0.306,-9.78 v -9.106 H -3.983 V 0 Z"
               style="fill:#ffffff;fill-opacity:1;fill-rule:nonzero;stroke:none"
               id="path88" />
          </g>
          <g
             transform="translate(640.1494,715.9783)"
             id="g94">
            <path
               d="m 0,0 -2.859,-2.971 v -7.902 H -5.942 V 12.51 h 3.083 V 0.947 L 7.532,12.51 h 3.726 L 2.056,2.184 11.98,-10.873 H 8.287 Z"
               style="fill:#ffffff;fill-opacity:1;fill-rule:nonzero;stroke:none"
               id="path92" />
          </g>
          <g
             transform="translate(672.6602,717.0862)"
             id="g98">
            <path
               d="M 0,0 H 4.738 C 6.269,0 7.486,0.396 8.391,1.19 9.296,1.984 9.748,3.046 9.748,4.376 9.748,5.824 9.317,6.934 8.455,7.707 7.594,8.479 6.349,8.87 4.722,8.881 H 0 Z M 5.492,-2.521 H 0 v -9.459 h -3.1 v 23.382 h 7.741 c 2.634,0 4.66,-0.599 6.079,-1.798 1.418,-1.2 2.128,-2.945 2.128,-5.235 0,-1.457 -0.393,-2.725 -1.181,-3.807 C 10.88,-0.52 9.786,-1.328 8.383,-1.863 l 5.492,-9.925 v -0.192 h -3.308 z"
               style="fill:#ffffff;fill-opacity:1;fill-rule:nonzero;stroke:none"
               id="path96" />
          </g>
          <path
             d="m 707.885,705.106 h -3.083 v 23.383 h 3.083 z"
             style="fill:#ffffff;fill-opacity:1;fill-rule:nonzero;stroke:none"
             id="path100" />
          <g
             transform="translate(746.0488,791.4622)"
             id="g104">
            <path
               d="m 0,0 c -0.289,-2.474 -1.202,-4.382 -2.738,-5.725 -1.536,-1.344 -3.579,-2.016 -6.127,-2.016 -2.762,0 -4.976,0.991 -6.641,2.971 -1.665,1.981 -2.497,4.631 -2.497,7.95 v 2.248 c 0,2.174 0.388,4.085 1.165,5.734 0.776,1.648 1.876,2.915 3.299,3.798 1.424,0.883 3.073,1.325 4.947,1.325 2.484,0 4.475,-0.694 5.974,-2.08 C -1.119,12.818 -0.247,10.899 0,8.447 h -3.1 c -0.267,1.869 -0.848,3.222 -1.742,4.06 -0.894,0.837 -2.144,1.256 -3.75,1.256 -1.97,0 -3.514,-0.728 -4.633,-2.186 -1.119,-1.457 -1.678,-3.531 -1.678,-6.22 V 3.09 c 0,-2.539 0.529,-4.559 1.59,-6.059 1.06,-1.501 2.542,-2.25 4.448,-2.25 1.713,0 3.027,0.387 3.943,1.164 0.915,0.776 1.523,2.128 1.822,4.055 z"
               style="fill:#ffffff;fill-opacity:1;fill-rule:nonzero;stroke:none"
               id="path102" />
          </g>
          <g
             transform="translate(778.9395,804.9041)"
             id="g108">
            <path
               d="m 0,0 h -7.516 v -20.861 h -3.067 V 0 h -7.5 V 2.521 H 0 Z"
               style="fill:#ffffff;fill-opacity:1;fill-rule:nonzero;stroke:none"
               id="path106" />
          </g>
          <g
             transform="translate(812.2163,787.1102)"
             id="g112">
            <path
               d="m 0,0 c -0.792,-1.135 -1.898,-1.983 -3.316,-2.545 -1.419,-0.563 -3.071,-0.844 -4.955,-0.844 -1.906,0 -3.597,0.447 -5.075,1.341 -1.477,0.894 -2.62,2.165 -3.429,3.815 -0.808,1.648 -1.223,3.559 -1.244,5.733 v 2.04 c 0,3.522 0.821,6.252 2.465,8.19 1.643,1.937 3.953,2.907 6.93,2.907 2.441,0 4.406,-0.624 5.894,-1.871 1.488,-1.247 2.398,-3.017 2.73,-5.308 h -3.083 c -0.579,3.104 -2.42,4.657 -5.525,4.657 -2.067,0 -3.632,-0.726 -4.698,-2.177 -1.065,-1.453 -1.603,-3.556 -1.614,-6.31 V 7.716 c 0,-2.625 0.6,-4.713 1.799,-6.261 1.199,-1.548 2.821,-2.322 4.866,-2.322 1.156,0 2.169,0.127 3.036,0.384 0.866,0.256 1.584,0.689 2.152,1.298 V 6.054 H -8.479 V 8.576 H 0 Z"
               style="fill:#ffffff;fill-opacity:1;fill-rule:nonzero;stroke:none"
               id="path110" />
          </g>
          <g
             transform="translate(740.2671,758.6102)"
             id="g116">
            <path
               d="m 0,0 c 0,2.516 -0.353,4.35 -1.06,5.5 -0.707,1.151 -1.825,1.727 -3.357,1.727 -1.52,0 -2.628,-0.573 -3.324,-1.719 C -8.437,4.363 -8.795,2.602 -8.817,0.225 v -4.754 c 0,-2.527 0.367,-4.392 1.1,-5.596 0.734,-1.206 1.844,-1.808 3.333,-1.808 1.467,0 2.556,0.568 3.268,1.703 0.712,1.135 1.084,2.922 1.116,5.364 z m 2.971,-4.063 c 0,-3.48 -0.594,-6.065 -1.783,-7.757 -1.188,-1.692 -3.045,-2.537 -5.572,-2.537 -2.495,0 -4.342,0.827 -5.541,2.481 -1.199,1.654 -1.82,4.125 -1.863,7.411 v 3.967 c 0,3.437 0.594,5.99 1.783,7.661 1.188,1.67 3.051,2.505 5.588,2.505 2.517,0 4.369,-0.806 5.557,-2.417 1.189,-1.612 1.799,-4.098 1.831,-7.46 z"
               style="fill:#ffffff;fill-opacity:1;fill-rule:nonzero;stroke:none"
               id="path114" />
          </g>
          <g
             transform="translate(773.1099,744.574)"
             id="g120">
            <path
               d="m 0,0 h -2.987 v 19.802 l -5.991,-2.201 v 2.698 l 8.512,3.197 H 0 Z"
               style="fill:#ffffff;fill-opacity:1;fill-rule:nonzero;stroke:none"
               id="path118" />
          </g>
          <g
             transform="translate(807.8794,744.574)"
             id="g124">
            <path
               d="m 0,0 h -2.987 v 19.802 l -5.99,-2.201 v 2.698 l 8.511,3.197 H 0 Z"
               style="fill:#ffffff;fill-opacity:1;fill-rule:nonzero;stroke:none"
               id="path122" />
          </g>
          <g
             transform="translate(736.9829,715.9783)"
             id="g128">
            <path
               d="m 0,0 -2.859,-2.971 v -7.902 H -5.942 V 12.51 h 3.083 V 0.947 L 7.532,12.51 h 3.725 L 2.055,2.184 11.98,-10.873 H 8.287 Z"
               style="fill:#ffffff;fill-opacity:1;fill-rule:nonzero;stroke:none"
               id="path126" />
          </g>
          <g
             transform="translate(769.4932,717.0862)"
             id="g132">
            <path
               d="M 0,0 H 4.738 C 6.269,0 7.487,0.396 8.392,1.19 9.296,1.984 9.749,3.046 9.749,4.376 9.749,5.824 9.317,6.934 8.456,7.707 7.594,8.479 6.349,8.87 4.722,8.881 H 0 Z M 5.493,-2.521 H 0 v -9.459 h -3.1 v 23.382 h 7.742 c 2.633,0 4.659,-0.599 6.078,-1.798 1.419,-1.2 2.128,-2.945 2.128,-5.235 0,-1.457 -0.393,-2.725 -1.181,-3.807 -0.786,-1.082 -1.881,-1.89 -3.283,-2.425 l 5.492,-9.925 v -0.192 h -3.309 z"
               style="fill:#ffffff;fill-opacity:1;fill-rule:nonzero;stroke:none"
               id="path130" />
          </g>
          <path
             d="m 807.718,705.106 h -3.083 v 23.383 h 3.083 z"
             style="fill:#ffffff;fill-opacity:1;fill-rule:nonzero;stroke:none"
             id="path134" />
        </g>
      </g>
    </g>
    <g
       id="g634"
       transform="matrix(0.35277777,0,0,-0.35277777,54.912228,161.50759)">
      <path
         d="m 0,0 h 5.398 c 1.896,0 3.318,0.63 4.267,1.891 0.948,1.26 1.422,2.946 1.422,5.058 0,4.719 -1.842,7.079 -5.527,7.079 H 0 Z M 4.719,-7.919 H 0 v -17.196 h -9.503 v 47.062 h 15.16 c 4.762,0 8.441,-1.234 11.038,-3.701 2.597,-2.468 3.895,-5.975 3.895,-10.521 0,-6.249 -2.274,-10.623 -6.82,-13.123 l 8.242,-19.265 v -0.452 H 11.798 Z"
         style="fill:#000000;fill-opacity:1;fill-rule:nonzero;stroke:none"
         id="path636" />
    </g>
    <g
       id="g638"
       transform="matrix(0.35277777,0,0,-0.35277777,76.087325,170.36768)">
      <path
         d="M 0,0 H -9.503 L -23.402,30.869 V 0 h -9.503 v 47.063 h 9.503 L -9.471,16.162 V 47.063 H 0 Z"
         style="fill:#000000;fill-opacity:1;fill-rule:nonzero;stroke:none"
         id="path640" />
    </g>
    <g
       id="g642"
       transform="matrix(0.35277777,0,0,-0.35277777,83.066046,164.176)">
      <path
         d="M 0,0 H 8.792 L 4.396,16.776 Z M 10.893,-7.919 H -2.069 L -4.59,-17.551 H -14.643 L 0.064,29.511 H 8.76 L 23.563,-17.551 H 13.414 Z"
         style="fill:#000000;fill-opacity:1;fill-rule:nonzero;stroke:none"
         id="path644" />
    </g>
    <g
       id="g646"
       transform="matrix(0.35277777,0,0,-0.35277777,100.39869,166.25785)">
      <path
         d="m 0,0 c -0.596,-7.48 -4.7,-12.444 -11.187,-12.444 -7.413,0 -11.782,5.163 -11.782,18.402 0,12.179 4.369,18.334 12.114,18.334 6.619,0 10.458,-4.037 10.855,-11.252 h -3.972 c -0.463,5.494 -2.647,7.943 -6.883,7.943 -4.303,0 -7.877,-2.648 -7.877,-15.092 0,-13.238 3.773,-15.026 7.479,-15.026 4.038,0 6.62,2.979 7.281,9.135 z"
         style="fill:#000000;fill-opacity:1;fill-rule:nonzero;stroke:none"
         id="path648" />
    </g>
    <g
       id="g650"
       transform="matrix(0.35277777,0,0,-0.35277777,106.07379,169.48041)">
      <path
         d="M 0,0 C 4.435,0 7.877,3.839 7.877,15.092 7.877,26.279 4.435,30.118 0,30.118 -4.435,30.118 -7.877,26.279 -7.877,15.092 -7.877,3.839 -4.435,0 0,0 m 0,33.427 c 7.745,0 12.113,-6.156 12.113,-18.335 C 12.113,2.847 7.745,-3.31 0,-3.31 c -7.745,0 -12.113,6.157 -12.113,18.402 0,12.179 4.368,18.335 12.113,18.335"
         style="fill:#000000;fill-opacity:1;fill-rule:nonzero;stroke:none"
         id="path652" />
    </g>
    <g
       id="g654"
       transform="matrix(0.35277777,0,0,-0.35277777,116.09229,169.48041)">
      <path
         d="m 0,0 c 4.038,0 7.678,2.052 7.678,15.092 0,12.974 -3.64,15.026 -7.678,15.026 -3.972,0 -7.679,-2.052 -7.679,-15.026 C -7.679,2.052 -3.972,0 0,0 M 8.075,3.31 H 7.943 c -1.059,-4.038 -4.435,-6.62 -8.605,-6.62 -7.745,0 -11.253,6.223 -11.253,18.402 0,12.114 3.508,18.335 11.253,18.335 4.369,0 7.347,-2.383 8.208,-6.089 h 0.132 v 17.409 h 3.971 V -2.515 H 8.075 Z"
         style="fill:#000000;fill-opacity:1;fill-rule:nonzero;stroke:none"
         id="path656" />
    </g>
    <g
       id="g658"
       transform="matrix(0.35277777,0,0,-0.35277777,129.02914,163.05876)">
      <path
         d="m 0,0 c -0.132,8.737 -2.582,11.915 -7.479,11.915 -4.899,0 -7.348,-3.178 -7.48,-11.915 z m 3.906,-9.068 c -0.596,-7.48 -4.7,-12.445 -11.32,-12.445 -7.413,0 -11.782,5.163 -11.782,18.402 0,12.179 4.369,18.335 12.113,18.335 7.812,0 11.319,-5.361 11.319,-17.078 V -3.31 h -19.195 v -1.654 c 0,-10.128 3.574,-13.239 7.48,-13.239 4.169,0 6.751,2.979 7.413,9.135 z"
         style="fill:#000000;fill-opacity:1;fill-rule:nonzero;stroke:none"
         id="path660" />
    </g>
    <g
       id="g662"
       transform="matrix(0.35277777,0,0,-0.35277777,51.535686,171.86148)">
      <path
         d="m 0,0 h 4.236 l 8.275,-41.569 h 0.132 L 20.718,0 h 4.899 l 8.075,-41.569 h 0.133 L 42.099,0 h 4.236 L 36.34,-47.262 h -5.296 l -7.81,41.569 H 23.102 L 15.291,-47.262 H 9.995 Z"
         style="fill:#000000;fill-opacity:1;fill-rule:nonzero;stroke:none"
         id="path664" />
    </g>
    <g
       id="g666"
       transform="matrix(0.35277777,0,0,-0.35277777,74.397343,181.22544)">
      <path
         d="m 0,0 c -0.132,8.737 -2.582,11.915 -7.479,11.915 -4.899,0 -7.348,-3.178 -7.48,-11.915 z m 3.906,-9.068 c -0.596,-7.48 -4.7,-12.445 -11.32,-12.445 -7.413,0 -11.782,5.163 -11.782,18.402 0,12.179 4.369,18.335 12.113,18.335 7.812,0 11.319,-5.361 11.319,-17.078 V -3.31 h -19.195 v -1.654 c 0,-10.128 3.574,-13.239 7.48,-13.239 4.169,0 6.751,2.979 7.413,9.135 z"
         style="fill:#000000;fill-opacity:1;fill-rule:nonzero;stroke:none"
         id="path668" />
    </g>
    <g
       id="g670"
       transform="matrix(0.35277777,0,0,-0.35277777,82.057348,187.64709)">
      <path
         d="M 0,0 C 3.972,0 7.678,2.052 7.678,15.092 7.678,28.066 3.972,30.118 0,30.118 -4.038,30.118 -7.678,28.066 -7.678,15.092 -7.678,2.052 -4.038,0 0,0 m -11.65,44.747 h 3.972 V 27.338 h 0.132 c 0.86,3.706 3.839,6.089 8.208,6.089 7.745,0 11.253,-6.221 11.253,-18.335 0,-12.179 -3.508,-18.402 -11.253,-18.402 -4.17,0 -7.546,2.582 -8.605,6.62 h -0.132 v -5.825 h -3.575 z"
         style="fill:#000000;fill-opacity:1;fill-rule:nonzero;stroke:none"
         id="path672" />
    </g>
  </g>
</svg>
